<svg xmlns="http://www.w3.org/2000/svg" width="24" height="24" viewBox="0 0 24 24" fill="none">
  <path d="M12 8L7.55489 12.4451C7.18607 12.8139 6.85873 13.222 6.5787 13.662L4.25926 17.3069C3.81563 18.004 3.91571 18.9157 4.5 19.5V19.5C5.08429 20.0843 5.99599 20.1844 6.69312 19.7407L10.338 17.4213C10.778 17.1413 11.1861 16.8139 11.5549 16.4451L16 12" stroke="#00000A" stroke-width="2" stroke-linecap="round" stroke-linejoin="round"/>
  <path d="M4 20L3 21" stroke="#00000A" stroke-width="2" stroke-linecap="round" stroke-linejoin="round"/>
  <path d="M6 8L9.58579 4.41421C10.3668 3.63317 11.6332 3.63317 12.4142 4.41421L14 6M14 6L18 10L19.5858 8.41421C20.3668 7.63317 20.3668 6.36683 19.5858 5.58579L18.4142 4.41421C17.6332 3.63316 16.3668 3.63316 15.5858 4.41421L14 6Z" stroke="#00000A" stroke-width="2" stroke-linecap="round" stroke-linejoin="round"/>
  <path d="M12 16L10 14" stroke="#00000A" stroke-width="2" stroke-linecap="round" stroke-linejoin="round"/>
</svg>