<svg width="24" height="24" viewBox="0 0 24 24" fill="none" xmlns="http://www.w3.org/2000/svg">
<g id="icon_24_camera">
<path id="Vector 727" d="M10.0704 4.5H13.9296C14.4312 4.5 14.8995 4.75065 15.1777 5.16795L15.9902 6.38675C16.4539 7.08225 17.2345 7.5 18.0704 7.5H20C20.8284 7.5 21.5 8.17157 21.5 9V18C21.5 18.8284 20.8284 19.5 20 19.5H4C3.17157 19.5 2.5 18.8284 2.5 18V9C2.5 8.17157 3.17157 7.5 4 7.5H5.92963C6.76551 7.5 7.54609 7.08225 8.00976 6.38675L8.82229 5.16795C9.10049 4.75065 9.56884 4.5 10.0704 4.5Z" stroke="#1B1D1F" stroke-linecap="round" stroke-linejoin="round"/>
<circle id="Ellipse 2580" cx="12" cy="13" r="3.5" stroke="#1B1D1F"/>
<circle id="Ellipse 2581" cx="12" cy="13" r="0.5" stroke="#1B1D1F"/>
</g>
</svg>
