<svg width="32" height="32" viewBox="0 0 32 32" fill="none" xmlns="http://www.w3.org/2000/svg">
<g id="icon_32_check_selected">
<path id="Vector" d="M6.76735 12.7838C7.12349 12.5584 7.3 12.1338 7.20869 11.7223C7.07005 11.0976 7.09134 10.4479 7.27057 9.83364C7.44981 9.21934 7.78117 8.6603 8.2339 8.20833C8.68664 7.75637 9.24608 7.42612 9.86034 7.24815C10.4746 7.07018 11.1238 7.05025 11.7478 7.19021C12.1584 7.28229 12.5827 7.10753 12.8093 6.753C13.1528 6.21551 13.626 5.77324 14.1853 5.4669C14.7445 5.16056 15.3719 5 16.0094 5C16.647 5 17.2743 5.16056 17.8336 5.4669C18.3928 5.77324 18.8661 6.21551 19.2096 6.75299C19.4363 7.10771 19.8609 7.28245 20.2716 7.19008C20.8966 7.04951 21.5469 7.06935 22.1622 7.24775C22.7774 7.42615 23.3376 7.75732 23.7906 8.21051C24.2436 8.6637 24.5747 9.22418 24.7531 9.83983C24.9315 10.4555 24.9513 11.1063 24.8108 11.7317C24.7185 12.1422 24.8931 12.5666 25.2476 12.7933C25.7848 13.137 26.2269 13.6104 26.5332 14.17C26.8395 14.7295 27 15.3573 27 15.9953C27 16.6333 26.8395 17.2611 26.5332 17.8206C26.2269 18.3802 25.7848 18.8536 25.2476 19.1972C24.8933 19.4239 24.7187 19.8479 24.8106 20.2583C24.9506 20.8828 24.9306 21.5325 24.7527 22.1471C24.5747 22.7618 24.2446 23.3215 23.7928 23.7744C23.341 24.2274 22.7822 24.5588 22.1683 24.738C21.5545 24.9173 20.9053 24.9386 20.281 24.7999C19.8701 24.7087 19.4462 24.8844 19.2203 25.2396C18.8773 25.7791 18.4037 26.2233 17.8434 26.531C17.2832 26.8387 16.6545 27 16.0154 27C15.3764 27 14.7476 26.8387 14.1874 26.531C13.6272 26.2233 13.1536 25.7791 12.8105 25.2396C12.5843 24.8838 12.1592 24.7081 11.7478 24.8004C11.1238 24.9403 10.4746 24.9204 9.86034 24.7424C9.24608 24.5645 8.68664 24.2342 8.2339 23.7823C7.78117 23.3303 7.44981 22.7713 7.27057 22.157C7.09134 21.5427 7.07005 20.893 7.20869 20.2683C7.3 19.8568 7.12349 19.4322 6.76735 19.2067C6.22603 18.864 5.7801 18.3899 5.47108 17.8284C5.16206 17.2669 5 16.6363 5 15.9953C5 15.3543 5.16206 14.7237 5.47108 14.1622C5.7801 13.6007 6.22603 13.1266 6.76735 12.7838Z" fill="#FA4549" stroke="#FA4549" stroke-width="2" stroke-linecap="round" stroke-linejoin="round"/>
<path id="Vector 561" d="M11 16L15 20L21 14" stroke="white" stroke-width="2" stroke-linecap="round" stroke-linejoin="round"/>
</g>
</svg>
