<svg width="48" height="48" viewBox="0 0 48 48" fill="none" xmlns="http://www.w3.org/2000/svg">
<path fill-rule="evenodd" clip-rule="evenodd" d="M8.50391 19.9998C9.95102 14.3774 14.3774 9.95102 19.9998 8.50391V10.5796C15.4843 11.9235 11.9235 15.4843 10.5796 19.9998H8.50391ZM8.50391 27.9998C9.95102 33.6223 14.3774 38.0487 19.9998 39.4958V37.4201C15.4843 36.0762 11.9235 32.5154 10.5796 27.9998H8.50391ZM27.9998 39.4958C33.6223 38.0487 38.0487 33.6223 39.4958 27.9998H37.4201C36.0762 32.5154 32.5154 36.0762 27.9998 37.4201V39.4958ZM27.9998 8.50391C33.6223 9.95102 38.0487 14.3774 39.4958 19.9998H37.4201C36.0762 15.4843 32.5154 11.9235 27.9998 10.5796V8.50391Z" fill="white" style="fill:white;fill-opacity:1;"/>
<path d="M37.6211 27V21.3438H41.418V22.3125H38.793V23.6875H41.2227V24.6562H38.793V26.0312H41.4258V27H37.6211Z" fill="white" style="fill:white;fill-opacity:1;"/>
<path d="M5.74609 27L4.12891 21.3438H5.41016L6.36328 25.2969H6.41016L7.44922 21.3438H8.55078L9.58984 25.3047H9.63672L10.5898 21.3438H11.8711L10.2539 27H9.10547L8.02734 23.2656H7.98047L6.89453 27H5.74609Z" fill="white" style="fill:white;fill-opacity:1;"/>
<path d="M25.0273 38.9609C24.9805 38.5117 24.625 38.25 24.0508 38.25C23.457 38.25 23.125 38.5234 23.1211 38.8984C23.1172 39.3086 23.5391 39.4922 24.0273 39.6016L24.5352 39.7266C25.5039 39.9492 26.2266 40.4414 26.2305 41.3828C26.2266 42.418 25.4219 43.082 24.043 43.0781C22.6758 43.082 21.8047 42.4492 21.7695 41.2344H22.9102C22.9492 41.8047 23.4023 42.0938 24.0273 42.0938C24.6445 42.0938 25.043 41.8047 25.043 41.3828C25.043 40.9961 24.6914 40.8164 24.0742 40.6641L23.457 40.5156C22.5039 40.2812 21.918 39.8047 21.918 38.9766C21.9141 37.9492 22.8203 37.2656 24.0586 37.2656C25.3125 37.2656 26.1367 37.9609 26.1523 38.9609H25.0273Z" fill="white" style="fill:white;fill-opacity:1;"/>
<path d="M26.3594 4.34375V10H25.3438L22.8594 6.40625H22.8125V10H21.6406V4.34375H22.6719L25.1406 7.9375H25.1953V4.34375H26.3594Z" fill="white" style="fill:white;fill-opacity:1;"/>
<path d="M24 14L22 22L15 24L22 26L24 34L26 26L33 24L26 22L24 14Z" stroke="white" style="fill-opacity:1;stroke:white;stroke-opacity:1;" stroke-width="2" stroke-linejoin="round"/>
</svg>
