<svg width="16" height="16" viewBox="0 0 16 16" fill="none" xmlns="http://www.w3.org/2000/svg">
<g id="icon_16_delete">
<path id="Oval" d="M8 16C12.4183 16 16 12.4183 16 8C16 3.58172 12.4183 0 8 0C3.58172 0 0 3.58172 0 8C0 12.4183 3.58172 16 8 16Z" fill="#6E747A"/>
<path id="Path" fill-rule="evenodd" clip-rule="evenodd" d="M10.8253 5.17157C11.0206 5.36683 11.0206 5.68341 10.8253 5.87868L8.70474 7.99929L10.8255 10.1213C11.0207 10.3166 11.0207 10.6331 10.8254 10.8284C10.6301 11.0237 10.3135 11.0237 10.1182 10.8284L7.99692 8.7071L5.8756 10.8284C5.68034 11.0237 5.36376 11.0237 5.16849 10.8284C4.97323 10.6332 4.97323 10.3166 5.16849 10.1213L7.28981 8L5.16849 5.87868C4.97323 5.68341 4.97323 5.36683 5.16849 5.17157C5.36376 4.97631 5.68034 4.97631 5.8756 5.17157L7.99692 7.29289L10.1182 5.17157C10.3135 4.97631 10.6301 4.97631 10.8253 5.17157Z" fill="white"/>
</g>
</svg>
