<svg xmlns="http://www.w3.org/2000/svg" width="33" height="32" viewBox="0 0 33 32" fill="none">
  <path d="M16.5 12L12.0549 16.4451C11.6861 16.8139 11.3587 17.222 11.0787 17.662L8.75926 21.3069C8.31563 22.004 8.41571 22.9157 9 23.5V23.5C9.58429 24.0843 10.496 24.1844 11.1931 23.7407L14.838 21.4213C15.278 21.1413 15.6861 20.8139 16.0549 20.4451L20.5 16" stroke="#4B5259" stroke-width="2" stroke-linecap="round" stroke-linejoin="round"/>
  <path d="M8.5 24L7.5 25" stroke="#4B5259" stroke-width="2" stroke-linecap="round" stroke-linejoin="round"/>
  <path d="M18.5 10L13.5 15M18.5 10L22.5 14L24.0858 12.4142C24.8668 11.6332 24.8668 10.3668 24.0858 9.58579L22.9142 8.41421C22.1332 7.63316 20.8668 7.63316 20.0858 8.41421L18.5 10Z" stroke="#4B5259" stroke-width="2" stroke-linecap="round" stroke-linejoin="round"/>
</svg>