<svg xmlns="http://www.w3.org/2000/svg" width="25" height="24" viewBox="0 0 25 24" fill="none">
  <path d="M14.9181 18.8402L14.9192 18.8393C15.2134 18.6077 15.5111 18.3782 15.8095 18.1483C17.0638 17.1817 18.3285 16.2071 19.3749 15.0289C20.6361 13.6089 21.5 11.9718 21.5 9.85293C21.5 7.79553 20.3379 6.08315 18.7718 5.36729C17.2688 4.68027 15.2146 4.83824 13.2205 6.91035L12.4999 7.65914L11.7794 6.91027C9.78522 4.83766 7.73111 4.67955 6.22818 5.36644C4.66214 6.08217 3.5 7.79451 3.5 9.85193C3.5 11.9713 4.3641 13.6083 5.62543 15.0285C6.67014 16.2048 7.93197 17.178 9.18389 18.1435C9.48453 18.3754 9.7846 18.6068 10.081 18.8405L14.9181 18.8402ZM14.9181 18.8402C14.3904 19.2571 13.9346 19.6101 13.5002 19.8641C13.0653 20.1182 12.7463 20.2149 12.5 20.2149C12.254 20.2149 11.935 20.1181 11.4998 19.8638M14.9181 18.8402L11.4998 19.8638M11.4998 19.8638C11.0651 19.6097 10.6094 19.257 10.0812 18.8407L11.4998 19.8638Z" stroke="#00000A" stroke-width="2"/>
</svg>