<svg xmlns="http://www.w3.org/2000/svg" width="24" height="24" viewBox="0 0 24 24" fill="none">
  <path d="M12.0536 20.9572L12.0261 20.9777L12 21C11.8326 20.8549 10.0676 19.3208 8.34235 17.1715C6.56101 14.9522 5.00217 12.2949 5 9.92493C5.01975 8.08241 5.76522 6.3219 7.07479 5.02544C8.38555 3.72779 10.1555 2.99991 11.9999 3H12C13.8445 2.99991 15.6145 3.72779 16.9252 5.02544C18.2348 6.32191 18.9803 8.08243 19 9.92497C18.9978 12.297 17.4491 14.9553 15.6753 17.1728C14.8091 18.2558 13.9295 19.1843 13.2448 19.858C12.9029 20.1944 12.6116 20.4652 12.3974 20.658C12.2902 20.7544 12.2034 20.8303 12.1402 20.8844C12.0926 20.9251 12.066 20.9469 12.0562 20.9549C12.0513 20.9589 12.0506 20.9594 12.0536 20.9572Z" stroke="#4B5259" stroke-width="2"/>
  <circle cx="12" cy="10" r="2" stroke="#4B5259" stroke-width="2"/>
</svg>