<svg width="24" height="24" viewBox="0 0 24 24" fill="none" xmlns="http://www.w3.org/2000/svg">
<g id="icon_24_map">
<path id="Vector 731" d="M3.72528 5.54708L8.6798 4.1315C8.87358 4.07614 9.07956 4.08061 9.27075 4.14434L14.0968 5.75302C14.6704 5.94421 15.2883 5.95764 15.8696 5.79155L19.7253 4.68994C20.3641 4.50742 21 4.98708 21 5.65146V17.4914C21 17.9379 20.704 18.3303 20.2747 18.4529L15.3202 19.8685C15.1264 19.9239 14.9204 19.9194 14.7293 19.8557L9.90321 18.247C9.32964 18.0558 8.71169 18.0424 8.13036 18.2085L4.27472 19.3101C3.63591 19.4926 3 19.0129 3 18.3485V6.5086C3 6.06212 3.29598 5.66974 3.72528 5.54708Z" stroke="#4B5259" stroke-width="2" stroke-linejoin="round"/>
<path id="Vector 732" d="M9 4L9 18" stroke="#4B5259" stroke-width="2"/>
<path id="Vector 733" d="M15 6L15 20" stroke="#4B5259" stroke-width="2"/>
</g>
</svg>
