<svg xmlns="http://www.w3.org/2000/svg" width="24" height="24" viewBox="0 0 24 24" fill="none">
  <path d="M15 18C14.6487 18 14.3232 18.1843 14.1425 18.4855L12.8575 20.6272C12.4691 21.2745 11.5309 21.2745 11.1425 20.6272L9.85749 18.4855C9.67677 18.1843 9.35126 18 9 18H6C4.34315 18 3 16.6569 3 15V6C3 4.34315 4.34315 3 6 3H18C19.6569 3 21 4.34315 21 6V15C21 16.6569 19.6569 18 18 18H15Z" stroke="#4B5259" stroke-width="2" stroke-linejoin="round"/>
  <path d="M15 8L9 14" stroke="#4B5259" stroke-width="2" stroke-linecap="round" stroke-linejoin="round"/>
  <path d="M9 8L15 14" stroke="#4B5259" stroke-width="2" stroke-linecap="round" stroke-linejoin="round"/>
</svg>