<svg width="16" height="16" viewBox="0 0 16 16" fill="none" xmlns="http://www.w3.org/2000/svg">
<g id="icon_16_search_arrow">
<path id="Vector 1 (Stroke)" fill-rule="evenodd" clip-rule="evenodd" d="M2 3C2 2.44772 2.44772 2 3 2H11.5C11.7761 2 12 2.22386 12 2.5V2.5C12 2.77614 11.7761 3 11.5 3H4C3.44772 3 3 3.44772 3 4V11.5C3 11.7761 2.77614 12 2.5 12V12C2.22386 12 2 11.7761 2 11.5V3Z" fill="#1B1D1F"/>
<path id="Vector 730" d="M13.1464 13.8536C13.3417 14.0488 13.6583 14.0488 13.8536 13.8536C14.0488 13.6583 14.0488 13.3417 13.8536 13.1464L13.1464 13.8536ZM2.64645 3.35355L13.1464 13.8536L13.8536 13.1464L3.35355 2.64645L2.64645 3.35355Z" fill="#1B1D1F"/>
</g>
</svg>
