<svg xmlns="http://www.w3.org/2000/svg" width="19" height="20" viewBox="0 0 19 20" fill="none">
  <path d="M11.1202 15.0253L6.92121 12.7353C5.7994 13.9346 4.05857 14.3264 2.53113 13.7233C1.00369 13.1203 0 11.645 0 10.0028C0 8.36061 1.00369 6.88528 2.53113 6.28225C4.05857 5.67921 5.7994 6.07101 6.92121 7.27028L11.1212 4.98028C10.6279 3.02736 11.6637 1.01225 13.5389 0.276786C15.4141 -0.458681 17.5436 0.314954 18.5095 2.08255C19.4754 3.85014 18.9762 6.0602 17.3444 7.24109C15.7126 8.42199 13.4573 8.20529 12.0802 6.73528L7.88021 9.02528C8.04141 9.66664 8.04141 10.3379 7.88021 10.9793L12.0792 13.2693C13.4563 11.7993 15.7116 11.5826 17.3434 12.7635C18.9752 13.9444 19.4744 16.1544 18.5085 17.922C17.5426 19.6896 15.4131 20.4632 13.5379 19.7278C11.6627 18.9923 10.6269 16.9772 11.1202 15.0243V15.0253ZM4.00021 12.0023C5.10478 12.0023 6.00021 11.1069 6.00021 10.0023C6.00021 8.89772 5.10478 8.00229 4.00021 8.00229C2.89564 8.00229 2.00021 8.89772 2.00021 10.0023C2.00021 11.1069 2.89564 12.0023 4.00021 12.0023ZM15.0002 6.00229C16.1048 6.00229 17.0002 5.10685 17.0002 4.00229C17.0002 2.89772 16.1048 2.00228 15.0002 2.00228C13.8956 2.00228 13.0002 2.89772 13.0002 4.00229C13.0002 5.10685 13.8956 6.00229 15.0002 6.00229ZM15.0002 18.0023C16.1048 18.0023 17.0002 17.1069 17.0002 16.0023C17.0002 14.8977 16.1048 14.0023 15.0002 14.0023C13.8956 14.0023 13.0002 14.8977 13.0002 16.0023C13.0002 17.1069 13.8956 18.0023 15.0002 18.0023Z" fill="#141415"/>
</svg>