<svg width="22" height="22" viewBox="0 0 24 24" fill="none" xmlns="http://www.w3.org/2000/svg">
<path d="M14.4192 18.8393L14.4181 18.8402C13.8904 19.2571 13.4346 19.6101 13.0002 19.8641C12.5653 20.1182 12.2463 20.2149 12 20.2149C11.754 20.2149 11.435 20.1181 10.9998 19.8638C10.565 19.6097 10.1093 19.2568 9.58096 18.8405C9.2846 18.6068 8.98453 18.3754 8.68389 18.1435C7.43197 17.178 6.17014 16.2048 5.12543 15.0285C3.8641 13.6083 3 11.9713 3 9.85193C3 7.79451 4.16214 6.08217 5.72818 5.36644C7.23111 4.67955 9.28522 4.83766 11.2794 6.91027L11.9999 7.65914L12.7205 6.91035C14.7146 4.83824 16.7688 4.68027 18.2718 5.36729C19.8379 6.08315 21 7.79553 21 9.85293C21 11.9718 20.1361 13.6089 18.8749 15.0289C17.8285 16.2071 16.5638 17.1817 15.3095 18.1483C15.0111 18.3782 14.7133 18.6077 14.4192 18.8393Z" stroke="#00000A" stroke-width="2"/>
</svg>