<svg xmlns="http://www.w3.org/2000/svg" width="24" height="24" viewBox="0 0 25 24" fill="none">
  <path d="M21.2089 10.0229L20.5546 9.67644L20.0323 10.2012L16.2265 14.0253L16.074 14.1786L15.9984 14.3811L14.2898 18.9601L14.2896 18.9606C14.2832 18.9778 14.2746 18.994 14.2642 19.0087L14.2208 19.0585L12.4452 20.8432C12.4103 20.8781 12.365 20.8983 12.3179 20.9012C12.2762 20.9038 12.2345 20.8929 12.1988 20.8696L12.1408 20.8187L8.81346 17.4755L8.11542 16.7741L7.40675 17.4648L3.84881 20.9321L3.84874 20.932L3.83902 20.9417C3.80268 20.9781 3.75492 20.9984 3.70572 20.9999C3.65655 21.0014 3.60781 20.9841 3.56953 20.9502C3.53109 20.9161 3.506 20.8676 3.50092 20.8141C3.49646 20.767 3.50789 20.7204 3.53232 20.6817L3.57601 20.632L7.10512 17.1904L7.82812 16.4854L7.11599 15.7693L3.76612 12.4011L3.76603 12.401C3.73112 12.3659 3.70934 12.3183 3.70612 12.2669C3.7033 12.2217 3.71498 12.1775 3.73848 12.1406L3.78788 12.0844L5.56571 10.2975L5.56696 10.2962C5.57789 10.2852 5.58994 10.2756 5.60282 10.2675L5.65843 10.2435L10.1914 8.53316L10.3943 8.45663L10.5472 8.30296L14.3518 4.48012L14.8726 3.95677L14.5258 3.30494C14.5034 3.26281 14.4958 3.21371 14.5049 3.16612C14.514 3.11858 14.5389 3.07662 14.5742 3.04676C14.6094 3.01699 14.6529 3.00086 14.6974 3.00003C14.7337 2.99936 14.7724 3.00986 14.8074 3.03278L14.8649 3.08383L21.4401 9.69262C21.4402 9.69281 21.4404 9.693 21.4406 9.69319C21.4745 9.72766 21.4958 9.77402 21.4994 9.82425C21.5031 9.87476 21.4886 9.92438 21.4594 9.96402L22.2651 10.5564L21.4594 9.96403C21.4304 10.0036 21.389 10.0302 21.3436 10.0407C21.2983 10.0511 21.2507 10.0449 21.2089 10.0229Z" stroke="#00000A" stroke-width="2"/>
</svg>