<svg width="24" height="24" viewBox="0 0 24 24" fill="none" xmlns="http://www.w3.org/2000/svg">
<g id="icon_24_star_default">
<path id="Star 1" d="M11.5318 3.67244C11.6941 3.23986 12.3059 3.23985 12.4682 3.67244L14.2885 8.52669C14.5081 9.11214 15.0677 9.5 15.693 9.5H20.238C20.7056 9.5 20.9173 10.0847 20.558 10.3841L17.1481 13.2257C16.7168 13.5851 16.5223 14.1554 16.6441 14.7034L17.9458 20.561C18.0453 21.0085 17.5402 21.3428 17.1671 21.0763L12.8719 18.0083C12.3503 17.6358 11.6497 17.6358 11.1281 18.0083L6.83291 21.0763C6.45984 21.3428 5.95474 21.0085 6.0542 20.561L7.35588 14.7034C7.47767 14.1554 7.28319 13.5851 6.85187 13.2257L3.44196 10.3841C3.0827 10.0847 3.2944 9.5 3.76205 9.5H8.307C8.93227 9.5 9.49195 9.11214 9.71149 8.52669L11.5318 3.67244Z" stroke="#1B1D1F" stroke-linejoin="round"/>
</g>
</svg>
