<svg width="32" height="32" viewBox="0 0 32 32" fill="none" xmlns="http://www.w3.org/2000/svg">
<path d="M18.4192 21.8393L18.4181 21.8402C17.8904 22.2571 17.4346 22.6101 17.0002 22.8641C16.5653 23.1182 16.2463 23.2149 16 23.2149C15.754 23.2149 15.435 23.1181 14.9998 22.8638C14.565 22.6097 14.1093 22.2568 13.581 21.8405C13.2846 21.6068 12.9845 21.3754 12.6839 21.1435C11.432 20.178 10.1701 19.2048 9.12543 18.0285C7.8641 16.6083 7 14.9713 7 12.8519C7 10.7945 8.16214 9.08217 9.72818 8.36644C11.2311 7.67955 13.2852 7.83766 15.2794 9.91027L15.9999 10.6591L16.7205 9.91035C18.7146 7.83824 20.7688 7.68027 22.2718 8.36729C23.8379 9.08315 25 10.7955 25 12.8529C25 14.9718 24.1361 16.6089 22.8749 18.0289C21.8285 19.2071 20.5638 20.1817 19.3095 21.1483C19.0111 21.3782 18.7133 21.6077 18.4192 21.8393Z" stroke="white" stroke-width="2"/>
</svg>
