<svg width="32" height="32" viewBox="0 0 32 32" fill="none" xmlns="http://www.w3.org/2000/svg">
<path d="M18.4181 21.8402L18.4192 21.8393C18.7134 21.6077 19.0111 21.3782 19.3095 21.1483C20.5638 20.1817 21.8285 19.2071 22.8749 18.0289C24.1361 16.6089 25 14.9718 25 12.8529C25 10.7955 23.8379 9.08315 22.2718 8.36729C20.7688 7.68027 18.7146 7.83824 16.7205 9.91035L15.9999 10.6591L15.2794 9.91027C13.2852 7.83766 11.2311 7.67955 9.72818 8.36644C8.16214 9.08217 7 10.7945 7 12.8519C7 14.9713 7.8641 16.6083 9.12543 18.0285C10.1701 19.2048 11.432 20.178 12.6839 21.1435C12.9845 21.3754 13.2846 21.6068 13.581 21.8405L18.4181 21.8402ZM18.4181 21.8402C17.8904 22.2571 17.4346 22.6101 17.0002 22.8641C16.5653 23.1182 16.2463 23.2149 16 23.2149C15.754 23.2149 15.435 23.1181 14.9998 22.8638M18.4181 21.8402L14.9998 22.8638M14.9998 22.8638C14.5651 22.6097 14.1094 22.257 13.5812 21.8407L14.9998 22.8638Z" stroke="white" stroke-width="2"/>
</svg>
