<svg xmlns="http://www.w3.org/2000/svg" width="64" height="64" viewBox="0 0 64 64" fill="none">
  <g filter="url(#filter0_d_1163_12570)">
    <rect x="8" y="4" width="48" height="48" rx="24" fill="white" shape-rendering="crispEdges"/>
    <mask id="path-2-inside-1_1163_12570" fill="white">
      <path fill-rule="evenodd" clip-rule="evenodd" d="M32.1392 16.259C31.3361 15.3198 31.1687 13.94 31.8218 12.8088C32.6503 11.3739 34.485 10.8823 35.9199 11.7107L36.7859 12.2107L43.7141 16.2107L44.5802 16.7107C46.015 17.5391 46.5067 19.3739 45.6782 20.8088C45.0251 21.94 43.7465 22.4849 42.5315 22.259L40.4345 25.8912C40.2855 26.1494 40.196 26.4376 40.1727 26.7348L39.6987 32.7755C39.6754 33.0727 39.586 33.3609 39.4369 33.6191L38.0443 36.0312C37.492 36.9878 36.2688 37.3155 35.3122 36.7633L30.1161 33.7633L25.1161 42.4235C24.8399 42.9018 24.2283 43.0657 23.75 42.7895C23.2717 42.5134 23.1079 41.9018 23.384 41.4235L28.384 32.7633L23.1879 29.7633C22.2313 29.211 21.9035 27.9878 22.4558 27.0312L23.8485 24.6191C23.9975 24.3609 24.2024 24.1393 24.4481 23.9705L29.4426 20.5397C29.6883 20.3709 29.8931 20.1494 30.0422 19.8912L32.1392 16.259Z"/>
    </mask>
    <path d="M32.1392 16.259L33.8713 17.259L34.5785 16.0341L33.6593 14.9592L32.1392 16.259ZM35.9199 11.7107L34.9199 13.4427L35.9199 11.7107ZM36.7859 12.2107L37.7859 10.4786L36.7859 12.2107ZM43.7141 16.2107L44.7141 14.4786L43.7141 16.2107ZM44.5802 16.7107L43.5802 18.4427L44.5802 16.7107ZM42.5315 22.259L42.8972 20.2927L41.5067 20.0341L40.7995 21.259L42.5315 22.259ZM40.4345 25.8912L38.7024 24.8912L40.4345 25.8912ZM40.1727 26.7348L42.1666 26.8912L42.1666 26.8912L40.1727 26.7348ZM39.6987 32.7755L37.7049 32.6191L37.7049 32.6191L39.6987 32.7755ZM39.4369 33.6191L41.169 34.6191L39.4369 33.6191ZM38.0443 36.0312L36.3122 35.0312L38.0443 36.0312ZM35.3122 36.7633L36.3122 35.0312L35.3122 36.7633ZM30.1161 33.7633L31.1161 32.0312L29.384 31.0312L28.384 32.7633L30.1161 33.7633ZM25.1161 42.4235L23.384 41.4235L25.1161 42.4235ZM23.384 41.4235L21.652 40.4235L23.384 41.4235ZM28.384 32.7633L30.1161 33.7633L31.1161 32.0312L29.384 31.0312L28.384 32.7633ZM22.4558 27.0312L24.1879 28.0312L22.4558 27.0312ZM23.8485 24.6191L22.1164 23.6191L23.8485 24.6191ZM24.4481 23.9705L23.3157 22.322L23.3157 22.322L24.4481 23.9705ZM29.4426 20.5397L28.3101 18.8912L28.3101 18.8912L29.4426 20.5397ZM30.0422 19.8912L31.7742 20.8912L30.0422 19.8912ZM30.0898 11.8088C28.9997 13.6968 29.2824 15.9956 30.6192 17.5588L33.6593 14.9592C33.3897 14.6439 33.3377 14.1831 33.5539 13.8088L30.0898 11.8088ZM36.9199 9.97864C34.5284 8.59793 31.4705 9.41731 30.0898 11.8088L33.5539 13.8088C33.83 13.3305 34.4416 13.1666 34.9199 13.4427L36.9199 9.97864ZM37.7859 10.4786L36.9199 9.97864L34.9199 13.4427L35.7859 13.9427L37.7859 10.4786ZM44.7141 14.4786L37.7859 10.4786L35.7859 13.9427L42.7141 17.9427L44.7141 14.4786ZM45.5802 14.9786L44.7141 14.4786L42.7141 17.9427L43.5802 18.4427L45.5802 14.9786ZM47.4103 21.8088C48.791 19.4173 47.9716 16.3594 45.5802 14.9786L43.5802 18.4427C44.0585 18.7189 44.2223 19.3305 43.9462 19.8088L47.4103 21.8088ZM42.1659 24.2253C44.1881 24.6013 46.3202 23.6968 47.4103 21.8088L43.9462 19.8088C43.7301 20.1831 43.305 20.3686 42.8972 20.2927L42.1659 24.2253ZM40.7995 21.259L38.7024 24.8912L42.1666 26.8912L44.2636 23.259L40.7995 21.259ZM38.7024 24.8912C38.4043 25.4075 38.2254 25.984 38.1788 26.5783L42.1666 26.8912L42.1666 26.8912L38.7024 24.8912ZM38.1788 26.5783L37.7049 32.6191L41.6926 32.9319L42.1666 26.8912L38.1788 26.5783ZM37.7049 32.6191L37.7049 32.6191L41.169 34.6191C41.4671 34.1028 41.646 33.5263 41.6926 32.9319L37.7049 32.6191ZM37.7049 32.6191L36.3122 35.0312L39.7763 37.0312L41.169 34.6191L37.7049 32.6191ZM36.3122 35.0312L34.3122 38.4953C36.2254 39.5999 38.6717 38.9444 39.7763 37.0312L36.3122 35.0312ZM36.3122 35.0312L31.1161 32.0312L29.1161 35.4953L34.3122 38.4953L36.3122 35.0312ZM26.8481 43.4235L31.8481 34.7633L28.384 32.7633L23.384 41.4235L26.8481 43.4235ZM22.75 44.5216C24.1849 45.35 26.0197 44.8584 26.8481 43.4235L23.384 41.4235C23.6602 40.9452 24.2717 40.7813 24.75 41.0575L22.75 44.5216ZM21.652 40.4235C20.8235 41.8584 21.3152 43.6932 22.75 44.5216L24.75 41.0575C25.2283 41.3336 25.3922 41.9452 25.1161 42.4235L21.652 40.4235ZM26.652 31.7633L21.652 40.4235L25.1161 42.4235L30.1161 33.7633L26.652 31.7633ZM29.384 31.0312L24.1879 28.0312L22.1879 31.4953L27.384 34.4953L29.384 31.0312ZM24.1879 28.0312L24.1879 28.0312L20.7238 26.0312C19.6192 27.9444 20.2747 30.3907 22.1879 31.4953L24.1879 28.0312ZM24.1879 28.0312L25.5805 25.6191L22.1164 23.6191L20.7238 26.0312L24.1879 28.0312ZM25.5805 25.6191L25.5805 25.6191L23.3157 22.322C22.8243 22.6596 22.4145 23.1027 22.1164 23.6191L25.5805 25.6191ZM25.5805 25.6191L30.575 22.1882L28.3101 18.8912L23.3157 22.322L25.5805 25.6191ZM30.575 22.1883C31.0664 21.8507 31.4761 21.4075 31.7742 20.8912L28.3101 18.8912L28.3101 18.8912L30.575 22.1883ZM31.7742 20.8912L33.8713 17.259L30.4072 15.259L28.3101 18.8912L31.7742 20.8912Z" fill="#FA4549" mask="url(#path-2-inside-1_1163_12570)"/>
  </g>
  <defs>
    <filter id="filter0_d_1163_12570" x="0.2" y="0.2" width="63.6" height="63.6" filterUnits="userSpaceOnUse" color-interpolation-filters="sRGB">
      <feFlood flood-opacity="0" result="BackgroundImageFix"/>
      <feColorMatrix in="SourceAlpha" type="matrix" values="0 0 0 0 0 0 0 0 0 0 0 0 0 0 0 0 0 0 127 0" result="hardAlpha"/>
      <feOffset dy="4"/>
      <feGaussianBlur stdDeviation="3.9"/>
      <feComposite in2="hardAlpha" operator="out"/>
      <feColorMatrix type="matrix" values="0 0 0 0 0 0 0 0 0 0 0 0 0 0 0 0 0 0 0.25 0"/>
      <feBlend mode="normal" in2="BackgroundImageFix" result="effect1_dropShadow_1163_12570"/>
      <feBlend mode="normal" in="SourceGraphic" in2="effect1_dropShadow_1163_12570" result="shape"/>
    </filter>
  </defs>
</svg>