<svg width="64" height="64" viewBox="0 0 64 64" fill="none" xmlns="http://www.w3.org/2000/svg">
<g id="icon_48_floating_selected" filter="url(#filter0_d_1163_12591)">
<rect x="8" y="4" width="48" height="48" rx="24" fill="#FA4549" shape-rendering="crispEdges"/>
<g id="Union">
<mask id="path-2-inside-1_1163_12591" fill="white">
<path fill-rule="evenodd" clip-rule="evenodd" d="M32.1392 16.2588C31.3361 15.3195 31.1687 13.9397 31.8218 12.8085C32.6503 11.3736 34.485 10.882 35.9199 11.7104L36.7859 12.2104L43.7141 16.2104L44.5802 16.7104C46.015 17.5389 46.5067 19.3736 45.6782 20.8085C45.0251 21.9397 43.7465 22.4847 42.5315 22.2588L40.4345 25.891C40.2855 26.1491 40.196 26.4373 40.1727 26.7345L39.6987 32.7753C39.6754 33.0725 39.586 33.3607 39.4369 33.6188L38.0443 36.031C37.492 36.9875 36.2688 37.3153 35.3122 36.763L30.1161 33.763L25.1161 42.4233C24.8399 42.9016 24.2283 43.0654 23.75 42.7893C23.2717 42.5131 23.1079 41.9016 23.384 41.4233L28.384 32.763L23.1879 29.763C22.2313 29.2107 21.9035 27.9875 22.4558 27.031L23.8485 24.6188C23.9975 24.3607 24.2024 24.1391 24.4481 23.9703L29.4426 20.5395C29.6883 20.3707 29.8931 20.1491 30.0422 19.891L32.1392 16.2588Z"/>
</mask>
<path d="M32.1392 16.2588L33.8713 17.2588L34.5785 16.0339L33.6593 14.959L32.1392 16.2588ZM35.9199 11.7104L36.9199 9.9784L35.9199 11.7104ZM36.7859 12.2104L35.7859 13.9425L36.7859 12.2104ZM43.7141 16.2104L42.7141 17.9425L43.7141 16.2104ZM44.5802 16.7104L45.5802 14.9784L44.5802 16.7104ZM42.5315 22.2588L42.8972 20.2925L41.5067 20.0339L40.7995 21.2588L42.5315 22.2588ZM40.1727 26.7345L42.1666 26.891L42.1666 26.891L40.1727 26.7345ZM39.6987 32.7753L37.7049 32.6188L37.7049 32.6188L39.6987 32.7753ZM35.3122 36.763L36.3122 35.031L35.3122 36.763ZM30.1161 33.763L31.1161 32.031L29.384 31.031L28.384 32.763L30.1161 33.763ZM25.1161 42.4233L23.384 41.4233L25.1161 42.4233ZM23.384 41.4233L21.652 40.4233L23.384 41.4233ZM28.384 32.763L30.1161 33.763L31.1161 32.031L29.384 31.031L28.384 32.763ZM23.1879 29.763L24.1879 28.031L23.1879 29.763ZM24.4481 23.9703L23.3157 22.3218L23.3157 22.3218L24.4481 23.9703ZM29.4426 20.5395L28.3101 18.891L28.3101 18.891L29.4426 20.5395ZM30.0898 11.8085C28.9997 13.6966 29.2824 15.9953 30.6192 17.5586L33.6593 14.959C33.3897 14.6437 33.3377 14.1829 33.5539 13.8085L30.0898 11.8085ZM36.9199 9.9784C34.5284 8.59769 31.4705 9.41706 30.0898 11.8085L33.5539 13.8085C33.83 13.3302 34.4416 13.1664 34.9199 13.4425L36.9199 9.9784ZM37.7859 10.4784L36.9199 9.9784L34.9199 13.4425L35.7859 13.9425L37.7859 10.4784ZM44.7141 14.4784L37.7859 10.4784L35.7859 13.9425L42.7141 17.9425L44.7141 14.4784ZM45.5802 14.9784L44.7141 14.4784L42.7141 17.9425L43.5802 18.4425L45.5802 14.9784ZM47.4103 21.8085C48.791 19.4171 47.9716 16.3591 45.5802 14.9784L43.5802 18.4425C44.0585 18.7186 44.2223 19.3302 43.9462 19.8085L47.4103 21.8085ZM42.1659 24.2251C44.1881 24.6011 46.3202 23.6966 47.4103 21.8085L43.9462 19.8085C43.7301 20.1829 43.305 20.3683 42.8972 20.2925L42.1659 24.2251ZM40.7995 21.2588L38.7024 24.891L42.1666 26.891L44.2636 23.2588L40.7995 21.2588ZM38.7024 24.891C38.4043 25.4073 38.2254 25.9837 38.1788 26.5781L42.1666 26.891L42.1666 26.891L38.7024 24.891ZM38.1788 26.5781L37.7049 32.6188L41.6926 32.9317L42.1666 26.891L38.1788 26.5781ZM37.7049 32.6188L37.7049 32.6188L41.169 34.6188C41.4671 34.1025 41.646 33.5261 41.6926 32.9317L37.7049 32.6188ZM37.7049 32.6188L36.3122 35.031L39.7763 37.031L41.169 34.6188L37.7049 32.6188ZM36.3122 35.031L34.3122 38.4951C36.2254 39.5996 38.6717 38.9441 39.7763 37.031L36.3122 35.031ZM36.3122 35.031L31.1161 32.031L29.1161 35.4951L34.3122 38.4951L36.3122 35.031ZM26.8481 43.4233L31.8481 34.763L28.384 32.763L23.384 41.4233L26.8481 43.4233ZM22.75 44.5213C24.1849 45.3498 26.0197 44.8581 26.8481 43.4233L23.384 41.4233C23.6602 40.945 24.2717 40.7811 24.75 41.0572L22.75 44.5213ZM21.652 40.4233C20.8235 41.8581 21.3152 43.6929 22.75 44.5213L24.75 41.0572C25.2283 41.3334 25.3922 41.945 25.1161 42.4233L21.652 40.4233ZM26.652 31.763L21.652 40.4233L25.1161 42.4233L30.1161 33.763L26.652 31.763ZM29.384 31.031L24.1879 28.031L22.1879 31.4951L27.384 34.4951L29.384 31.031ZM24.1879 28.031L24.1879 28.031L20.7238 26.031C19.6192 27.9441 20.2747 30.3905 22.1879 31.4951L24.1879 28.031ZM24.1879 28.031L25.5805 25.6188L22.1164 23.6188L20.7238 26.031L24.1879 28.031ZM25.5805 25.6188L25.5805 25.6188L23.3157 22.3218C22.8243 22.6593 22.4145 23.1025 22.1164 23.6188L25.5805 25.6188ZM25.5805 25.6188L30.575 22.188L28.3101 18.891L23.3157 22.3218L25.5805 25.6188ZM30.575 22.188C31.0664 21.8504 31.4761 21.4073 31.7742 20.891L28.3101 18.891L28.3101 18.891L30.575 22.188ZM31.7742 20.891L33.8713 17.2588L30.4072 15.2588L28.3101 18.891L31.7742 20.891Z" fill="white" mask="url(#path-2-inside-1_1163_12591)"/>
</g>
</g>
<defs>
<filter id="filter0_d_1163_12591" x="0.2" y="0.2" width="63.6" height="63.6" filterUnits="userSpaceOnUse" color-interpolation-filters="sRGB">
<feFlood flood-opacity="0" result="BackgroundImageFix"/>
<feColorMatrix in="SourceAlpha" type="matrix" values="0 0 0 0 0 0 0 0 0 0 0 0 0 0 0 0 0 0 127 0" result="hardAlpha"/>
<feOffset dy="4"/>
<feGaussianBlur stdDeviation="3.9"/>
<feComposite in2="hardAlpha" operator="out"/>
<feColorMatrix type="matrix" values="0 0 0 0 0 0 0 0 0 0 0 0 0 0 0 0 0 0 0.25 0"/>
<feBlend mode="normal" in2="BackgroundImageFix" result="effect1_dropShadow_1163_12591"/>
<feBlend mode="normal" in="SourceGraphic" in2="effect1_dropShadow_1163_12591" result="shape"/>
</filter>
</defs>
</svg>
