<svg width="48" height="48" viewBox="0 0 48 48" fill="none" xmlns="http://www.w3.org/2000/svg">
<g id="icon_48_pin">
<g id="Union" filter="url(#filter0_d_1048_20686)">
<mask id="path-1-outside-1_1048_20686" maskUnits="userSpaceOnUse" x="13" y="6" width="22" height="36" fill="black">
<rect fill="white" x="13" y="6" width="22" height="36"/>
<path fill-rule="evenodd" clip-rule="evenodd" d="M18 12C16.8954 12 16 11.1046 16 10C16 8.89543 16.8954 8 18 8H20H28H30C31.1046 8 32 8.89543 32 10C32 11.1046 31.1046 12 30 12V17.5279C30 17.8384 30.0723 18.1446 30.2111 18.4223L32.7889 23.5777C32.9277 23.8554 33 24.1616 33 24.4721V27C33 28.1046 32.1046 29 31 29H25L25 39C25 39.5523 24.5523 40 24 40C23.4477 40 23 39.5523 23 39L23 29H17C15.8954 29 15 28.1046 15 27V24.4721C15 24.1616 15.0723 23.8554 15.2111 23.5777L17.7889 18.4223C17.9277 18.1446 18 17.8384 18 17.5279V12Z"/>
</mask>
<path fill-rule="evenodd" clip-rule="evenodd" d="M18 12C16.8954 12 16 11.1046 16 10C16 8.89543 16.8954 8 18 8H20H28H30C31.1046 8 32 8.89543 32 10C32 11.1046 31.1046 12 30 12V17.5279C30 17.8384 30.0723 18.1446 30.2111 18.4223L32.7889 23.5777C32.9277 23.8554 33 24.1616 33 24.4721V27C33 28.1046 32.1046 29 31 29H25L25 39C25 39.5523 24.5523 40 24 40C23.4477 40 23 39.5523 23 39L23 29H17C15.8954 29 15 28.1046 15 27V24.4721C15 24.1616 15.0723 23.8554 15.2111 23.5777L17.7889 18.4223C17.9277 18.1446 18 17.8384 18 17.5279V12Z" fill="#00000A"/>
<path d="M18 12H20V10H18V12ZM30 12V10H28V12H30ZM25 29V27H23V29H25ZM25 39H23H25ZM23 39H21H23ZM23 29H25V27H23V29ZM15.2111 23.5777L17 24.4721L17 24.4721L15.2111 23.5777ZM17.7889 18.4223L16 17.5279L16 17.5279L17.7889 18.4223ZM14 10C14 12.2091 15.7909 14 18 14V10H14ZM18 6C15.7909 6 14 7.79086 14 10H18V6ZM20 6H18V10H20V6ZM28 6H20V10H28V6ZM30 6H28V10H30V6ZM34 10C34 7.79086 32.2091 6 30 6V10H34ZM30 14C32.2091 14 34 12.2091 34 10H30V14ZM28 12V17.5279H32V12H28ZM28 17.5279C28 18.1488 28.1446 18.7613 28.4223 19.3167L32 17.5279V17.5279H28ZM28.4223 19.3167L31 24.4721L34.5777 22.6833L32 17.5279L28.4223 19.3167ZM31 24.4721H35C35 23.8512 34.8554 23.2387 34.5777 22.6833L31 24.4721ZM31 24.4721V27H35V24.4721H31ZM31 27V31C33.2091 31 35 29.2091 35 27H31ZM31 27H25V31H31V27ZM27 39L27 29H23L23 39H27ZM24 42C25.6569 42 27 40.6569 27 39H23C23 38.4477 23.4477 38 24 38V42ZM21 39C21 40.6569 22.3431 42 24 42V38C24.5523 38 25 38.4477 25 39H21ZM21 29L21 39H25L25 29H21ZM23 27H17V31H23V27ZM17 27H17H13C13 29.2091 14.7909 31 17 31V27ZM17 27V24.4721H13V27H17ZM17 24.4721L17 24.4721L13.4223 22.6833C13.1446 23.2387 13 23.8512 13 24.4721H17ZM17 24.4721L19.5777 19.3167L16 17.5279L13.4223 22.6833L17 24.4721ZM19.5777 19.3167C19.8554 18.7613 20 18.1488 20 17.5279H16L16 17.5279L19.5777 19.3167ZM20 17.5279V12H16V17.5279H20Z" fill="white" mask="url(#path-1-outside-1_1048_20686)"/>
</g>
</g>
<defs>
<filter id="filter0_d_1048_20686" x="9" y="3" width="30" height="44" filterUnits="userSpaceOnUse" color-interpolation-filters="sRGB">
<feFlood flood-opacity="0" result="BackgroundImageFix"/>
<feColorMatrix in="SourceAlpha" type="matrix" values="0 0 0 0 0 0 0 0 0 0 0 0 0 0 0 0 0 0 127 0" result="hardAlpha"/>
<feOffset dy="1"/>
<feGaussianBlur stdDeviation="2"/>
<feComposite in2="hardAlpha" operator="out"/>
<feColorMatrix type="matrix" values="0 0 0 0 0 0 0 0 0 0 0 0 0 0 0 0 0 0 0.5 0"/>
<feBlend mode="normal" in2="BackgroundImageFix" result="effect1_dropShadow_1048_20686"/>
<feBlend mode="normal" in="SourceGraphic" in2="effect1_dropShadow_1048_20686" result="shape"/>
</filter>
</defs>
</svg>
