<svg xmlns="http://www.w3.org/2000/svg" width="48" height="48" viewBox="0 0 48 48" fill="none">
  <path d="M24.5304 40.7733L24.5029 40.7943L24.477 40.8171C24.3401 40.9375 24.1707 41 24 41C23.8301 41 23.6615 40.9381 23.525 40.8188C23.2576 40.5805 20.1062 37.7714 17.0227 33.8202C13.8929 29.8095 11.002 24.8323 11 20.2608C11.0356 16.7231 12.4269 13.3481 14.8632 10.8673C17.2997 8.38624 20.5837 6.99982 23.9999 7H24.0001C27.4163 6.99982 30.7003 8.38624 33.1368 10.8673C35.5731 13.3481 36.9643 16.7231 37 20.2608C36.998 24.8343 34.1267 29.8125 31.009 33.8215C29.4694 35.8013 27.9085 37.4961 26.6944 38.7247C26.0878 39.3385 25.5698 39.834 25.1868 40.1885C24.9952 40.3658 24.8385 40.5068 24.7224 40.609C24.6642 40.6602 24.6175 40.7005 24.5825 40.7301C24.5441 40.7625 24.529 40.7743 24.5304 40.7733Z" fill="#FA4549" stroke="white" stroke-width="2"/>
  <circle cx="24" cy="21" r="4" fill="white"/>
</svg>