<svg xmlns="http://www.w3.org/2000/svg" width="22" height="22" viewBox="0 0 20 18" fill="none">
  <path d="M12.4181 14.8402L12.4192 14.8393C12.7134 14.6077 13.0111 14.3782 13.3095 14.1483C14.5638 13.1817 15.8285 12.2071 16.8749 11.0289C18.1361 9.60887 19 7.97184 19 5.85293C19 3.79553 17.8379 2.08315 16.2718 1.36729C14.7688 0.680271 12.7146 0.838241 10.7205 2.91035L9.99992 3.65914L9.27939 2.91027C7.28522 0.83766 5.23111 0.679552 3.72818 1.36644C2.16214 2.08217 1 3.79451 1 5.85193C1 7.97129 1.8641 9.60833 3.12543 11.0285C4.17014 12.2048 5.43197 13.178 6.68389 14.1435C6.98453 14.3754 7.2846 14.6068 7.58096 14.8405L12.4181 14.8402ZM12.4181 14.8402C11.8904 15.2571 11.4346 15.6101 11.0002 15.8641C10.5653 16.1182 10.2463 16.2149 10 16.2149C9.75396 16.2149 9.43499 16.1181 8.99984 15.8638M12.4181 14.8402L8.99984 15.8638M8.99984 15.8638C8.56508 15.6097 8.10942 15.257 7.58121 14.8407L8.99984 15.8638Z" fill="#FA4549" stroke="#FA4549" stroke-width="2"/>
</svg>