<svg width="25" height="24" viewBox="0 0 25 24" fill="none" xmlns="http://www.w3.org/2000/svg">
<g id="icon_24_koklist_selected">
<path id="Subtract" fill-rule="evenodd" clip-rule="evenodd" d="M3.5 6C3.5 3.79086 5.29086 2 7.5 2H17.5C19.7091 2 21.5 3.79086 21.5 6V18C21.5 20.2091 19.7091 22 17.5 22H7.5C5.29086 22 3.5 20.2091 3.5 18V6ZM11.3 14.9C11.6314 15.3418 11.5418 15.9686 11.1 16.3L9.1 17.8C8.70188 18.0986 8.14478 18.059 7.79289 17.7071L6.79289 16.7071C6.40237 16.3166 6.40237 15.6834 6.79289 15.2929C7.18342 14.9024 7.81658 14.9024 8.20711 15.2929L8.59384 15.6796L9.9 14.7C10.3418 14.3686 10.9686 14.4582 11.3 14.9ZM11.1 11.8C11.5418 11.4686 11.6314 10.8418 11.3 10.4C10.9686 9.95817 10.3418 9.86863 9.9 10.2L8.59384 11.1796L8.20711 10.7929C7.81658 10.4024 7.18342 10.4024 6.79289 10.7929C6.40237 11.1834 6.40237 11.8166 6.79289 12.2071L7.79289 13.2071C8.14478 13.559 8.70188 13.5986 9.1 13.3L11.1 11.8ZM11.3 5.9C11.6314 6.34183 11.5418 6.96863 11.1 7.3L9.1 8.8C8.70188 9.09859 8.14478 9.059 7.79289 8.70711L6.79289 7.70711C6.40237 7.31658 6.40237 6.68342 6.79289 6.29289C7.18342 5.90237 7.81658 5.90237 8.20711 6.29289L8.59384 6.67962L9.9 5.7C10.3418 5.36863 10.9686 5.45817 11.3 5.9ZM13.5 15.5C12.9477 15.5 12.5 15.9477 12.5 16.5C12.5 17.0523 12.9477 17.5 13.5 17.5H17C17.5523 17.5 18 17.0523 18 16.5C18 15.9477 17.5523 15.5 17 15.5H13.5ZM12.5 12C12.5 11.4477 12.9477 11 13.5 11H17C17.5523 11 18 11.4477 18 12C18 12.5523 17.5523 13 17 13H13.5C12.9477 13 12.5 12.5523 12.5 12ZM13.5 6.5C12.9477 6.5 12.5 6.94772 12.5 7.5C12.5 8.05228 12.9477 8.5 13.5 8.5H17C17.5523 8.5 18 8.05228 18 7.5C18 6.94772 17.5523 6.5 17 6.5H13.5Z" fill="#FA4549"/>
</g>
</svg>
