<svg width="24" height="24" viewBox="0 0 24 24" fill="none" xmlns="http://www.w3.org/2000/svg">
<g id="icon_24_star_selected">
<path id="Star 1" d="M11.0637 3.49688C11.3881 2.63171 12.6119 2.63171 12.9363 3.49688L14.7567 8.35112C14.903 8.74143 15.2762 9 15.693 9H20.238C21.1732 9 21.5966 10.1695 20.8781 10.7682L17.4682 13.6098C17.1807 13.8494 17.051 14.2296 17.1322 14.595L18.4339 20.4525C18.6328 21.3476 17.6226 22.0162 16.8765 21.4832L12.5812 18.4152C12.2335 18.1668 11.7665 18.1668 11.4188 18.4152L7.12353 21.4832C6.37738 22.0162 5.36719 21.3476 5.5661 20.4525L6.86778 14.595C6.94898 14.2296 6.81933 13.8494 6.53178 13.6098L3.12186 10.7682C2.40335 10.1695 2.82675 9 3.76205 9H8.307C8.72384 9 9.09696 8.74143 9.24333 8.35112L11.0637 3.49688Z" fill="#FA4549"/>
</g>
</svg>
