<svg width="32" height="32" viewBox="0 0 32 32" fill="none" xmlns="http://www.w3.org/2000/svg">
<g id="icon_32_off">
<path id="Vector" d="M15.83 13L19 16.16V16C19 15.2043 18.6839 14.4413 18.1213 13.8787C17.5587 13.3161 16.7956 13 16 13H15.83ZM11.53 13.8L13.08 15.35C13.03 15.56 13 15.77 13 16C13 16.7956 13.3161 17.5587 13.8787 18.1213C14.4413 18.6839 15.2044 19 16 19C16.22 19 16.44 18.97 16.65 18.92L18.2 20.47C17.53 20.8 16.79 21 16 21C14.6739 21 13.4021 20.4732 12.4645 19.5355C11.5268 18.5979 11 17.3261 11 16C11 15.21 11.2 14.47 11.53 13.8ZM6 8.27L8.28 10.55L8.73 11C7.08 12.3 5.78 14 5 16C6.73 20.39 11 23.5 16 23.5C17.55 23.5 19.03 23.2 20.38 22.66L20.81 23.08L23.73 26L25 24.73L7.27 7M16 11C17.3261 11 18.5979 11.5268 19.5355 12.4645C20.4732 13.4021 21 14.6739 21 16C21 16.64 20.87 17.26 20.64 17.82L23.57 20.75C25.07 19.5 26.27 17.86 27 16C25.27 11.61 21 8.5 16 8.5C14.6 8.5 13.26 8.75 12 9.2L14.17 11.35C14.74 11.13 15.35 11 16 11Z" fill="#C8CBD1"/>
</g>
</svg>
