<svg width="32" height="32" viewBox="0 0 32 32" fill="none" xmlns="http://www.w3.org/2000/svg">
<g id="icon_32_on">
<path id="Vector" d="M16 13.5C15.2044 13.5 14.4413 13.8161 13.8787 14.3787C13.3161 14.9413 13 15.7044 13 16.5C13 17.2956 13.3161 18.0587 13.8787 18.6213C14.4413 19.1839 15.2044 19.5 16 19.5C16.7956 19.5 17.5587 19.1839 18.1213 18.6213C18.6839 18.0587 19 17.2956 19 16.5C19 15.7044 18.6839 14.9413 18.1213 14.3787C17.5587 13.8161 16.7956 13.5 16 13.5ZM16 21.5C14.6739 21.5 13.4021 20.9732 12.4645 20.0355C11.5268 19.0979 11 17.8261 11 16.5C11 15.1739 11.5268 13.9021 12.4645 12.9645C13.4021 12.0268 14.6739 11.5 16 11.5C17.3261 11.5 18.5979 12.0268 19.5355 12.9645C20.4732 13.9021 21 15.1739 21 16.5C21 17.8261 20.4732 19.0979 19.5355 20.0355C18.5979 20.9732 17.3261 21.5 16 21.5ZM16 9C11 9 6.73 12.11 5 16.5C6.73 20.89 11 24 16 24C21 24 25.27 20.89 27 16.5C25.27 12.11 21 9 16 9Z" fill="#6E747A"/>
</g>
</svg>
