<svg xmlns="http://www.w3.org/2000/svg" width="24" height="24" viewBox="0 0 24 24" fill="none">
  <path d="M10 6.5C10.2761 6.5 10.5 6.27614 10.5 6V4C10.5 3.17157 11.1716 2.5 12 2.5H20C20.8284 2.5 21.5 3.17157 21.5 4V13C21.5 13.8284 20.8284 14.5 20 14.5H19C18.8659 14.5 18.7374 14.5539 18.6434 14.6495C18.5494 14.7452 18.4978 14.8746 18.5001 15.0086L18.5859 19.9741C18.6004 20.8125 17.9247 21.5 17.0861 21.5H4C3.17157 21.5 2.5 20.8284 2.5 20V8C2.5 7.17157 3.17157 6.5 4 6.5H10Z" stroke="#1B1D1F" stroke-linejoin="round"/>
  <line x1="11" y1="14.5" x2="2" y2="14.5" stroke="#1B1D1F"/>
  <path d="M10.5 12L10.5 16" stroke="#1B1D1F" stroke-linecap="round"/>
  <path d="M10.5 5L10.5 9" stroke="#1B1D1F" stroke-linecap="round"/>
  <path d="M11 19C11 18.7239 10.7761 18.5 10.5 18.5C10.2239 18.5 10 18.7239 10 19L11 19ZM10 21L10 21.5L11 21.5L11 21L10 21ZM10 19L10 21L11 21L11 19L10 19Z" fill="#1B1D1F"/>
</svg>