<svg width="24" height="24" viewBox="0 0 24 24" fill="none" xmlns="http://www.w3.org/2000/svg">
<g id="icon_24_home_selected">
<g id="Subtract">
<mask id="path-1-inside-1_1048_20200" fill="white">
<path fill-rule="evenodd" clip-rule="evenodd" d="M9.7812 3.47917L3.7812 7.47917C2.66841 8.22103 2 9.46996 2 10.8074V18C2 20.2091 3.79086 22 6 22H18C20.2091 22 22 20.2091 22 18V10.8074C22 9.46996 21.3316 8.22103 20.2188 7.47917L14.2188 3.47917C12.8752 2.58344 11.1248 2.58344 9.7812 3.47917ZM9 16C8.44772 16 8 16.4477 8 17C8 17.5523 8.44772 18 9 18L15 18C15.5523 18 16 17.5523 16 17C16 16.4477 15.5523 16 15 16L9 16Z"/>
</mask>
<path fill-rule="evenodd" clip-rule="evenodd" d="M9.7812 3.47917L3.7812 7.47917C2.66841 8.22103 2 9.46996 2 10.8074V18C2 20.2091 3.79086 22 6 22H18C20.2091 22 22 20.2091 22 18V10.8074C22 9.46996 21.3316 8.22103 20.2188 7.47917L14.2188 3.47917C12.8752 2.58344 11.1248 2.58344 9.7812 3.47917ZM9 16C8.44772 16 8 16.4477 8 17C8 17.5523 8.44772 18 9 18L15 18C15.5523 18 16 17.5523 16 17C16 16.4477 15.5523 16 15 16L9 16Z" fill="#FA4549"/>
<path d="M3.7812 7.47917L4.8906 9.14327H4.8906L3.7812 7.47917ZM9.7812 3.47917L8.6718 1.81507V1.81507L9.7812 3.47917ZM20.2188 7.47917L21.3282 5.81507L20.2188 7.47917ZM14.2188 3.47917L15.3282 1.81507L15.3282 1.81507L14.2188 3.47917ZM9 16L9 14H9V16ZM9 18L9 16H9V18ZM15 18V20V18ZM15 16V18V16ZM4.8906 9.14327L10.8906 5.14327L8.6718 1.81507L2.6718 5.81507L4.8906 9.14327ZM4 10.8074C4 10.1387 4.3342 9.5142 4.8906 9.14327L2.6718 5.81507C1.00261 6.92786 0 8.80125 0 10.8074H4ZM4 18V10.8074H0V18H4ZM6 20C4.89543 20 4 19.1045 4 18H0C0 21.3137 2.6863 24 6 24V20ZM18 20H6V24H18V20ZM20 18C20 19.1045 19.1046 20 18 20V24C21.3137 24 24 21.3137 24 18H20ZM20 10.8074V18H24V10.8074H20ZM19.1094 9.14327C19.6658 9.5142 20 10.1387 20 10.8074H24C24 8.80125 22.9974 6.92787 21.3282 5.81507L19.1094 9.14327ZM13.1094 5.14327L19.1094 9.14327L21.3282 5.81507L15.3282 1.81507L13.1094 5.14327ZM10.8906 5.14327C11.5624 4.69541 12.4376 4.69541 13.1094 5.14327L15.3282 1.81507C13.3128 0.471475 10.6872 0.471472 8.6718 1.81507L10.8906 5.14327ZM10 17C10 17.5523 9.55228 18 9 18V14C7.34315 14 6 15.3431 6 17H10ZM9 16C9.55229 16 10 16.4477 10 17H6C6 18.6568 7.34315 20 9 20V16ZM15 16L9 16L9 20H15V16ZM14 17C14 16.4477 14.4477 16 15 16V20C16.6569 20 18 18.6568 18 17H14ZM15 18C14.4477 18 14 17.5523 14 17H18C18 15.3431 16.6569 14 15 14V18ZM9 18L15 18V14L9 14L9 18Z" fill="#FA4549" mask="url(#path-1-inside-1_1048_20200)"/>
</g>
</g>
</svg>
