<svg xmlns="http://www.w3.org/2000/svg" width="24" height="24" viewBox="0 0 24 24" fill="none">
  <mask id="path-1-inside-1_1163_12997" fill="white">
    <path fill-rule="evenodd" clip-rule="evenodd" d="M4 3H16C16.5523 3 17 3.44772 17 4V12C14.2386 12 12 14.2386 12 17C12 18.1256 12.3719 19.1643 12.9996 20H4C3.44772 20 3 19.5523 3 19V4C3 3.44772 3.44772 3 4 3ZM13.9995 21H4C2.89543 21 2 20.1046 2 19V4C2 2.89543 2.89543 2 4 2H16C17.1046 2 18 2.89543 18 4V12.1C20.2822 12.5633 22 14.581 22 17C22 19.7614 19.7614 22 17 22C15.8742 22 14.8353 21.6279 13.9995 21Z"/>
  </mask>
  <path d="M17 12V13H18V12H17ZM12.9996 20V21H15.0014L13.7992 19.3994L12.9996 20ZM13.9995 21L14.6002 20.2005L14.3333 20H13.9995V21ZM18 12.1H17V12.9174L17.8011 13.08L18 12.1ZM16 2H4V4H16V2ZM18 4C18 2.89543 17.1046 2 16 2V4H18ZM18 12V4H16V12H18ZM13 17C13 14.7909 14.7909 13 17 13V11C13.6863 11 11 13.6863 11 17H13ZM13.7992 19.3994C13.2971 18.731 13 17.9016 13 17H11C11 18.3496 11.4468 19.5977 12.2001 20.6006L13.7992 19.3994ZM4 21H12.9996V19H4V21ZM2 19C2 20.1046 2.89543 21 4 21V19H2ZM2 4V19H4V4H2ZM4 2C2.89543 2 2 2.89543 2 4H4V4V2ZM4 22H13.9995V20H4V22ZM1 19C1 20.6569 2.34315 22 4 22V20C3.44771 20 3 19.5523 3 19H1ZM1 4V19H3V4H1ZM4 1C2.34315 1 1 2.34315 1 4H3C3 3.44772 3.44772 3 4 3V1ZM16 1H4V3H16V1ZM19 4C19 2.34315 17.6569 1 16 1V3C16.5523 3 17 3.44772 17 4H19ZM19 12.1V4H17V12.1H19ZM17.8011 13.08C19.6264 13.4506 21 15.066 21 17H23C23 14.0961 20.938 11.676 18.1989 11.12L17.8011 13.08ZM21 17C21 19.2091 19.2091 21 17 21V23C20.3137 23 23 20.3137 23 17H21ZM17 21C16.0982 21 15.2687 20.7028 14.6002 20.2005L13.3988 21.7995C14.4018 22.5531 15.6502 23 17 23V21Z" fill="#1B1D1F" mask="url(#path-1-inside-1_1163_12997)"/>
  <path d="M14.5 15.5C14.5 15.5 14.5 19 15.5 19C16.5 19 16.5 16 17 16C17.5 16 17.5 19 18.5 19C19.5 19 19.5 15.5 19.5 15.5" stroke="#1B1D1F" stroke-linecap="round" stroke-linejoin="round"/>
  <path d="M14 17H20" stroke="#1B1D1F" stroke-linecap="round"/>
  <path d="M5.5 5.5H14.5" stroke="#1B1D1F" stroke-linecap="round"/>
  <path d="M5.5 8.5H14.5" stroke="#1B1D1F" stroke-linecap="round"/>
  <path d="M5.5 11.5H13.5" stroke="#1B1D1F" stroke-linecap="round"/>
  <path d="M5.5 14.5H10.5" stroke="#1B1D1F" stroke-linecap="round"/>
  <path d="M5.5 17.5H10.5" stroke="#1B1D1F" stroke-linecap="round"/>
</svg>