<svg width="72" height="72" viewBox="0 0 72 72" fill="none" xmlns="http://www.w3.org/2000/svg">
<g id="&#236;&#149;&#132;&#237;&#140;&#140;&#237;&#138;&#184;">
<path id="Vector 672" d="M27 20H11C9.89543 20 9 20.8954 9 22V60" stroke="#1B1D1F" stroke-width="2" stroke-linecap="round"/>
<path id="Vector 673" d="M45 20H61C62.1046 20 63 20.8954 63 22V60" stroke="#1B1D1F" stroke-width="2" stroke-linecap="round"/>
<path id="Vector 697" d="M28 60V14C28 12.8954 28.8954 12 30 12H42C43.1046 12 44 12.8954 44 14V60" stroke="#1B1D1F" stroke-width="2" stroke-linecap="round" stroke-linejoin="round"/>
<path id="Vector 698" d="M10 34H22" stroke="#1B1D1F" stroke-width="2" stroke-linecap="round" stroke-linejoin="round"/>
<path id="Vector 699" d="M10 44H22" stroke="#1B1D1F" stroke-width="2" stroke-linecap="round" stroke-linejoin="round"/>
<path id="Vector 700" d="M10 54H22" stroke="#1B1D1F" stroke-width="2" stroke-linecap="round" stroke-linejoin="round"/>
<path id="Vector 701" d="M50 34H62" stroke="#1B1D1F" stroke-width="2" stroke-linecap="round" stroke-linejoin="round"/>
<path id="Vector 704" d="M32 25H40" stroke="#1B1D1F" stroke-width="2" stroke-linecap="round" stroke-linejoin="round"/>
<path id="Vector 705" d="M32 37H40" stroke="#1B1D1F" stroke-width="2" stroke-linecap="round" stroke-linejoin="round"/>
<path id="Vector 706" d="M32 49H40" stroke="#1B1D1F" stroke-width="2" stroke-linecap="round" stroke-linejoin="round"/>
<path id="Vector 702" d="M50 44H62" stroke="#1B1D1F" stroke-width="2" stroke-linecap="round" stroke-linejoin="round"/>
<path id="Vector 703" d="M50 54H62" stroke="#1B1D1F" stroke-width="2" stroke-linecap="round" stroke-linejoin="round"/>
<path id="Rectangle 24056" d="M14 28C13.4477 28 13 28.4477 13 29V33C13 33.5523 13.4477 34 14 34H18C18.5523 34 19 33.5523 19 33V29C19 28.4477 18.5523 28 18 28H14Z" fill="#FFEFEF" stroke="#1B1D1F" stroke-width="2" stroke-linejoin="round"/>
<path id="Rectangle 24057" d="M14 38C13.4477 38 13 38.4477 13 39V43C13 43.5523 13.4477 44 14 44H18C18.5523 44 19 43.5523 19 43V39C19 38.4477 18.5523 38 18 38H14Z" fill="#FFEFEF" stroke="#1B1D1F" stroke-width="2" stroke-linejoin="round"/>
<path id="Rectangle 24058" d="M14 48C13.4477 48 13 48.4477 13 49V53C13 53.5523 13.4477 54 14 54H18C18.5523 54 19 53.5523 19 53V49C19 48.4477 18.5523 48 18 48H14Z" fill="#FFEFEF" stroke="#1B1D1F" stroke-width="2" stroke-linejoin="round"/>
<path id="Rectangle 24062" d="M34 43C33.4477 43 33 43.4477 33 44V48C33 48.5523 33.4477 49 34 49H38C38.5523 49 39 48.5523 39 48V44C39 43.4477 38.5523 43 38 43H34Z" fill="#FFEFEF" stroke="#1B1D1F" stroke-width="2" stroke-linejoin="round"/>
<path id="Rectangle 24063" d="M34 31C33.4477 31 33 31.4477 33 32V36C33 36.5523 33.4477 37 34 37H38C38.5523 37 39 36.5523 39 36V32C39 31.4477 38.5523 31 38 31H34Z" fill="#FFEFEF" stroke="#1B1D1F" stroke-width="2" stroke-linejoin="round"/>
<path id="Rectangle 24064" d="M34 19C33.4477 19 33 19.4477 33 20V24C33 24.5523 33.4477 25 34 25H38C38.5523 25 39 24.5523 39 24V20C39 19.4477 38.5523 19 38 19H34Z" fill="#FFEFEF" stroke="#1B1D1F" stroke-width="2" stroke-linejoin="round"/>
<path id="Rectangle 24059" d="M54 48C53.4477 48 53 48.4477 53 49V53C53 53.5523 53.4477 54 54 54H58C58.5523 54 59 53.5523 59 53V49C59 48.4477 58.5523 48 58 48H54Z" fill="#FFEFEF" stroke="#1B1D1F" stroke-width="2" stroke-linejoin="round"/>
<path id="Rectangle 24060" d="M54 38C53.4477 38 53 38.4477 53 39V43C53 43.5523 53.4477 44 54 44H58C58.5523 44 59 43.5523 59 43V39C59 38.4477 58.5523 38 58 38H54Z" fill="#FFEFEF" stroke="#1B1D1F" stroke-width="2" stroke-linejoin="round"/>
<path id="Rectangle 24061" d="M54 28C53.4477 28 53 28.4477 53 29V33C53 33.5523 53.4477 34 54 34H58C58.5523 34 59 33.5523 59 33V29C59 28.4477 58.5523 28 58 28H54Z" fill="#FFEFEF" stroke="#1B1D1F" stroke-width="2" stroke-linejoin="round"/>
</g>
</svg>
