<svg width="120" height="136" viewBox="0 0 120 136" fill="none" xmlns="http://www.w3.org/2000/svg">
<path d="M101.727 101.512H106.35V116.821L112.641 109.318H118.173V109.583L110.557 118.109L119.234 127.659V128H113.664L106.35 119.549V128H101.727V101.512Z" fill="#1B1D1F"/>
<path d="M88.8724 108.939C94.8219 108.939 98.6492 113.335 98.6492 118.678C98.6492 124.059 94.9734 128.417 88.9103 128.417C82.8471 128.417 79.2092 124.059 79.2092 118.678C79.2092 113.335 82.9229 108.939 88.8724 108.939ZM88.9103 113.145C85.5755 113.145 83.8324 115.874 83.8324 118.678C83.8324 121.52 85.5376 124.173 88.9103 124.173C92.2829 124.173 93.9882 121.52 93.9882 118.678C93.9882 115.874 92.0176 113.145 88.9103 113.145Z" fill="#1B1D1F"/>
<path d="M61.2788 101.512H65.902V116.821L72.1925 109.318H77.7251V109.583L70.1083 118.109L78.7862 127.659V128H73.2156L65.902 119.549V128H61.2788V101.512Z" fill="#1B1D1F"/>
<path d="M51.2129 125.613C51.2129 122.013 56.6697 122.013 56.6697 125.613C56.6697 129.213 51.2129 129.213 51.2129 125.613Z" fill="#FA4549"/>
<path d="M37.9876 123.983C41.1329 123.983 43.2929 121.596 43.2929 118.678C43.2929 115.76 41.3223 113.373 37.9876 113.373C34.6529 113.373 32.6823 115.76 32.6823 118.678C32.6823 121.596 34.8423 123.983 37.9876 123.983ZM32.2655 135.806H27.6423V109.318H31.9623L32.2655 111.895C33.7055 109.811 36.2065 108.901 38.3287 108.901C44.0887 108.901 47.916 113.183 47.916 118.678C47.916 124.135 44.4676 128.455 38.4802 128.455C36.5097 128.455 33.5918 127.848 32.2655 125.802V135.806Z" fill="#1B1D1F"/>
<path d="M23.458 109.242V128H18.8348V109.242H23.458ZM18.418 104.051C18.418 107.651 23.8748 107.651 23.8748 104.051C23.8748 100.451 18.418 100.451 18.418 104.051Z" fill="#1B1D1F"/>
<path d="M1.02317 109.318H15.9916V111.516L7.38949 123.453H16.0674V128H0.341064V126.067L9.28422 113.524H1.02317V109.318Z" fill="#1B1D1F"/>
<g filter="url(#filter0_d_3424_18758)">
<rect x="28" y="14" width="64" height="64" rx="7.38462" fill="white"/>
<path fill-rule="evenodd" clip-rule="evenodd" d="M86.1138 44.3744C87.0117 45.5418 86.7934 47.216 85.626 48.114L68.2927 61.4473C67.2924 62.2168 65.8896 62.1797 64.9314 61.3584L55.598 53.3584C54.4798 52.3999 54.3503 50.7164 55.3088 49.5982C56.2672 48.48 57.9507 48.3505 59.0689 49.309L66.7577 55.8994L82.3742 43.8867C83.5416 42.9887 85.2158 43.2071 86.1138 44.3744Z" fill="#FA4549"/>
<path fill-rule="evenodd" clip-rule="evenodd" d="M50.3999 30.5333C51.3481 29.8222 52.6518 29.8222 53.5999 30.5333L69.5999 42.5333C70.2714 43.0369 70.6666 43.8273 70.6666 44.6667V48.6667C70.6666 50.1394 69.4727 51.3333 67.9999 51.3333C66.5272 51.3333 65.3333 50.1394 65.3333 48.6667V46L51.9999 36L38.6666 46V59.3333C38.6666 60.8061 37.4727 62 35.9999 62C34.5272 62 33.3333 60.8061 33.3333 59.3333V44.6667C33.3333 43.8273 33.7284 43.0369 34.3999 42.5333L50.3999 30.5333Z" fill="#00000A"/>
<path fill-rule="evenodd" clip-rule="evenodd" d="M39.9999 30C41.4727 30 42.6666 31.1939 42.6666 32.6667V40.6667C42.6666 42.1394 41.4727 43.3333 39.9999 43.3333C38.5272 43.3333 37.3333 42.1394 37.3333 40.6667V32.6667C37.3333 31.1939 38.5272 30 39.9999 30Z" fill="#00000A"/>
</g>
<defs>
<filter id="filter0_d_3424_18758" x="12.4923" y="0.953845" width="95.0154" height="95.0154" filterUnits="userSpaceOnUse" color-interpolation-filters="sRGB">
<feFlood flood-opacity="0" result="BackgroundImageFix"/>
<feColorMatrix in="SourceAlpha" type="matrix" values="0 0 0 0 0 0 0 0 0 0 0 0 0 0 0 0 0 0 127 0" result="hardAlpha"/>
<feOffset dy="2.46154"/>
<feGaussianBlur stdDeviation="7.75385"/>
<feComposite in2="hardAlpha" operator="out"/>
<feColorMatrix type="matrix" values="0 0 0 0 0 0 0 0 0 0 0 0 0 0 0 0 0 0 0.25 0"/>
<feBlend mode="normal" in2="BackgroundImageFix" result="effect1_dropShadow_3424_18758"/>
<feBlend mode="normal" in="SourceGraphic" in2="effect1_dropShadow_3424_18758" result="shape"/>
</filter>
</defs>
</svg>
