<svg width="274" height="96" viewBox="0 0 274 96" fill="none" xmlns="http://www.w3.org/2000/svg">
<path d="M271.215 58.6738V64.7031H273.658V66.3027H271.215V74.582H269.264V58.6738H271.215ZM259.42 70.6973V60.1855H266.855V61.7676H261.371V69.0625C263.841 69.0537 265.801 68.9307 267.98 68.5527L268.209 70.2051C265.739 70.627 263.604 70.6973 260.738 70.6973H259.42Z" fill="white"/>
<path d="M255.64 58.6738V65.002H258.083V66.6191H255.64V74.5645H253.707V58.6738H255.64ZM243.107 62.6816V61.1172H246.869V58.9023H248.82V61.1172H252.476V62.6816H243.107ZM243.845 67.4629C243.828 65.2656 245.533 63.71 247.853 63.7188C250.138 63.71 251.834 65.2656 251.843 67.4629C251.834 69.6514 250.138 71.1895 247.853 71.1895C245.533 71.1895 243.828 69.6514 243.845 67.4629ZM245.708 67.4629C245.7 68.7549 246.605 69.5811 247.853 69.5723C249.075 69.5811 249.962 68.7549 249.98 67.4629C249.962 66.1709 249.075 65.3184 247.853 65.3184C246.605 65.3184 245.7 66.1709 245.708 67.4629Z" fill="white"/>
<path d="M241.982 60.291L240.505 65.2129H238.835L239.749 60.291H241.982Z" fill="white"/>
<path d="M235.899 59.0957V60.502C235.89 61.9521 235.89 63.5166 235.442 65.5645L233.509 65.4238C233.676 64.668 233.781 63.9912 233.843 63.3584L224.632 63.7539L224.385 62.1543L233.93 61.9258C233.948 61.4951 233.948 61.082 233.948 60.6777H224.807V59.0957H235.899ZM223.155 67.8672V66.3027H228.71V64.3867H230.661V66.3027H237.569V67.8672H223.155ZM224.649 70.7676V69.2207H235.829V74.4941H233.878V70.7676H224.649Z" fill="white"/>
<path d="M218.76 65.1953L220.237 60.2734H221.906L220.992 65.1953H218.76Z" fill="white"/>
<path d="M205.98 58.9199C209.601 58.9287 211.702 59.8867 211.71 61.6445C211.702 63.4199 209.601 64.3779 205.98 64.3867C202.368 64.3779 200.25 63.4199 200.25 61.6445C200.25 59.8867 202.368 58.9287 205.98 58.9199ZM198.755 66.7949V65.2305H213.24V66.7949H198.755ZM200.46 69.3086V67.8672H211.429V71.752H202.394V72.9297H211.869V74.4238H200.478V70.3633H209.513V69.3086H200.46ZM202.306 61.6445C202.297 62.5234 203.563 62.9277 205.98 62.9277C208.432 62.9277 209.689 62.5234 209.689 61.6445C209.689 60.8271 208.432 60.3613 205.98 60.3613C203.563 60.3613 202.297 60.8271 202.306 61.6445Z" fill="white"/>
<path d="M190.546 68.4824C193.842 68.4824 195.863 69.5986 195.872 71.5059C195.863 73.4395 193.842 74.5557 190.546 74.5645C187.224 74.5557 185.167 73.4395 185.167 71.5059C185.167 69.5986 187.224 68.4824 190.546 68.4824ZM183.726 67.0938V59.6758H185.659V61.8203H189.368V59.6758H191.302V67.0938H183.726ZM185.659 65.5469H189.368V63.3496H185.659V65.5469ZM187.118 71.5059C187.118 72.4902 188.366 73.0264 190.546 73.0176C192.717 73.0264 193.938 72.4902 193.938 71.5059C193.938 70.5215 192.717 70.0205 190.546 70.0117C188.366 70.0205 187.118 70.5215 187.118 71.5059ZM193.763 68.0957V58.6738H195.714V62.4707H197.929V64.1055H195.714V68.0957H193.763Z" fill="white"/>
<path d="M177.151 60.3438V61.873H173.864C173.899 63.2529 175.156 64.4746 177.502 64.9316L176.729 66.4434C174.91 66.0654 173.626 65.2129 172.923 64.0703C172.229 65.3184 170.911 66.2588 169.047 66.6543L168.221 65.1426C170.603 64.668 171.869 63.332 171.895 61.873H168.625V60.3438H171.913V58.709H173.864V60.3438H177.151ZM167.624 67.4805C170.585 67.4893 174.532 67.4629 177.924 67.041L178.065 68.4473C176.694 68.6846 175.27 68.834 173.881 68.9307V74.0723H171.913V69.0361C170.462 69.0889 169.083 69.0977 167.87 69.0977L167.624 67.4805ZM178.961 74.5469V58.6914H180.895V74.5469H178.961Z" fill="white"/>
<path d="M157.727 63.1914C157.718 65.6436 159.195 68.4385 161.699 69.6074L160.61 71.1543C158.817 70.3105 157.49 68.6055 156.778 66.6191C156.057 68.7988 154.668 70.6621 152.84 71.541L151.698 70.0117C154.229 68.8076 155.767 65.8369 155.776 63.1914V61.8555H152.313V60.2383H161.049V61.8555H157.727V63.1914ZM162.526 74.5645V58.6738H164.477V64.8613H166.92V66.4961H164.477V74.5645H162.526Z" fill="white"/>
<path d="M137.827 60.3262C137.819 62.3301 139.111 64.1494 141.572 64.8789L140.57 66.3906C138.812 65.8369 137.573 64.7207 136.878 63.2881C136.175 64.9229 134.848 66.1885 132.958 66.8125L131.991 65.2656C134.549 64.457 135.867 62.5146 135.876 60.3262V59.2363H137.827V60.3262ZM134.312 69.0449V67.5332H144.7V71.6289H136.263V72.877H145.193V74.4238H134.329V70.2051H142.749V69.0449H134.312ZM142.749 66.8828V58.6738H144.7V61.9082H146.915V63.5078H144.7V66.8828H142.749Z" fill="white"/>
<path d="M124.749 58.6738V64.8789H127.104V66.5137H124.749V74.5293H122.797V58.6738H124.749ZM112.215 70.1875C116.083 68.2539 118.174 65.5645 118.561 61.9434H113.077V60.3262H120.547C120.539 64.9932 118.605 69.0977 113.323 71.6992L112.215 70.1875Z" fill="white"/>
<path d="M110.369 58.6738V74.5645H108.488V66.5312H106.73V73.7559H104.902V58.9727H106.73V64.9316H108.488V58.6738H110.369ZM97.4141 70.6094V60.502H99.3828V68.8867C100.754 68.8604 102.248 68.7373 103.918 68.4121L104.111 70.1172C101.967 70.4951 100.147 70.6094 98.4688 70.6094H97.4141Z" fill="white"/>
<path d="M197.727 13.5116H202.35V28.8211L208.641 21.3179H214.173V21.5832L206.557 30.1095L215.234 39.659V40H209.664L202.35 31.5495V40H197.727V13.5116Z" fill="white"/>
<path d="M184.872 20.9389C190.822 20.9389 194.649 25.3347 194.649 30.6779C194.649 36.059 190.973 40.4168 184.91 40.4168C178.847 40.4168 175.209 36.059 175.209 30.6779C175.209 25.3347 178.923 20.9389 184.872 20.9389ZM184.91 25.1453C181.576 25.1453 179.832 27.8737 179.832 30.6779C179.832 33.52 181.538 36.1726 184.91 36.1726C188.283 36.1726 189.988 33.52 189.988 30.6779C189.988 27.8737 188.018 25.1453 184.91 25.1453Z" fill="white"/>
<path d="M157.279 13.5116H161.902V28.8211L168.192 21.3179H173.725V21.5832L166.108 30.1095L174.786 39.659V40H169.216L161.902 31.5495V40H157.279V13.5116Z" fill="white"/>
<path d="M147.213 37.6126C147.213 34.0126 152.67 34.0126 152.67 37.6126C152.67 41.2126 147.213 41.2126 147.213 37.6126Z" fill="white"/>
<path d="M133.988 35.9832C137.133 35.9832 139.293 33.5958 139.293 30.6779C139.293 27.76 137.323 25.3726 133.988 25.3726C130.653 25.3726 128.683 27.76 128.683 30.6779C128.683 33.5958 130.843 35.9832 133.988 35.9832ZM128.266 47.8063H123.643V21.3179H127.963L128.266 23.8947C129.706 21.8105 132.207 20.9011 134.329 20.9011C140.089 20.9011 143.916 25.1832 143.916 30.6779C143.916 36.1347 140.468 40.4547 134.48 40.4547C132.51 40.4547 129.592 39.8484 128.266 37.8021V47.8063Z" fill="white"/>
<path d="M119.458 21.2421V40H114.835V21.2421H119.458ZM114.418 16.0505C114.418 19.6505 119.875 19.6505 119.875 16.0505C119.875 12.4505 114.418 12.4505 114.418 16.0505Z" fill="white"/>
<path d="M97.0232 21.3179H111.992V23.5158L103.389 35.4526H112.067V40H96.3411V38.0674L105.284 25.5242H97.0232V21.3179Z" fill="white"/>
<g filter="url(#filter0_d_3424_18757)">
<rect x="16" y="14" width="64" height="64" rx="7.38462" fill="white"/>
<path fill-rule="evenodd" clip-rule="evenodd" d="M74.1138 44.3744C75.0117 45.5418 74.7934 47.216 73.626 48.114L56.2927 61.4473C55.2924 62.2168 53.8896 62.1797 52.9314 61.3584L43.598 53.3584C42.4798 52.3999 42.3503 50.7164 43.3088 49.5982C44.2672 48.48 45.9507 48.3505 47.0689 49.309L54.7577 55.8994L70.3742 43.8867C71.5416 42.9887 73.2158 43.2071 74.1138 44.3744Z" fill="#FA4549"/>
<path fill-rule="evenodd" clip-rule="evenodd" d="M38.3999 30.5333C39.3481 29.8222 40.6518 29.8222 41.5999 30.5333L57.5999 42.5333C58.2714 43.0369 58.6666 43.8273 58.6666 44.6667V48.6667C58.6666 50.1394 57.4727 51.3333 55.9999 51.3333C54.5272 51.3333 53.3333 50.1394 53.3333 48.6667V46L39.9999 36L26.6666 46V59.3333C26.6666 60.8061 25.4727 62 23.9999 62C22.5272 62 21.3333 60.8061 21.3333 59.3333V44.6667C21.3333 43.8273 21.7284 43.0369 22.3999 42.5333L38.3999 30.5333Z" fill="#00000A"/>
<path fill-rule="evenodd" clip-rule="evenodd" d="M27.9999 30C29.4727 30 30.6666 31.1939 30.6666 32.6667V40.6667C30.6666 42.1394 29.4727 43.3333 27.9999 43.3333C26.5272 43.3333 25.3333 42.1394 25.3333 40.6667V32.6667C25.3333 31.1939 26.5272 30 27.9999 30Z" fill="#00000A"/>
</g>
<defs>
<filter id="filter0_d_3424_18757" x="0.492307" y="0.953845" width="95.0154" height="95.0154" filterUnits="userSpaceOnUse" color-interpolation-filters="sRGB">
<feFlood flood-opacity="0" result="BackgroundImageFix"/>
<feColorMatrix in="SourceAlpha" type="matrix" values="0 0 0 0 0 0 0 0 0 0 0 0 0 0 0 0 0 0 127 0" result="hardAlpha"/>
<feOffset dy="2.46154"/>
<feGaussianBlur stdDeviation="7.75385"/>
<feComposite in2="hardAlpha" operator="out"/>
<feColorMatrix type="matrix" values="0 0 0 0 0 0 0 0 0 0 0 0 0 0 0 0 0 0 0.25 0"/>
<feBlend mode="normal" in2="BackgroundImageFix" result="effect1_dropShadow_3424_18757"/>
<feBlend mode="normal" in="SourceGraphic" in2="effect1_dropShadow_3424_18757" result="shape"/>
</filter>
</defs>
</svg>
