<svg width="140" height="192" viewBox="0 0 140 192" fill="none" xmlns="http://www.w3.org/2000/svg">
<rect width="140" height="192" fill="white"/>
<rect width="96" height="96" transform="translate(22 18)" fill="white"/>
<path fill-rule="evenodd" clip-rule="evenodd" d="M109.171 64.5612C110.518 66.3122 110.19 68.8236 108.439 70.1705L82.4389 90.1705C80.9384 91.3247 78.8342 91.269 77.3969 90.037L63.3969 78.037C61.7196 76.5994 61.5254 74.0742 62.963 72.3969C64.4007 70.7195 66.9259 70.5253 68.6032 71.963L80.1364 81.8486L103.561 63.8295C105.312 62.4826 107.824 62.8102 109.171 64.5612Z" fill="#FA4549"/>
<path fill-rule="evenodd" clip-rule="evenodd" d="M55.6 43.8C57.0222 42.7333 58.9778 42.7333 60.4 43.8L84.4 61.8C85.4072 62.5554 86 63.741 86 65V71C86 73.2091 84.2091 75 82 75C79.7909 75 78 73.2091 78 71V67L58 52L38 67V87C38 89.2091 36.2091 91 34 91C31.7909 91 30 89.2091 30 87V65C30 63.741 30.5928 62.5554 31.6 61.8L55.6 43.8Z" fill="#00000A"/>
<path fill-rule="evenodd" clip-rule="evenodd" d="M40 42C42.2091 42 44 43.7909 44 46V58C44 60.2091 42.2091 62 40 62C37.7909 62 36 60.2091 36 58V46C36 43.7909 37.7909 42 40 42Z" fill="#00000A"/>
<path d="M76.2011 113.123C75.0123 113.123 74.1552 112.833 73.6299 112.252C73.1046 111.644 72.8419 110.911 72.8419 110.054C72.8419 109.253 73.0908 108.561 73.5884 107.981C74.1137 107.4 74.9846 107.11 76.2011 107.11H103.116C104.941 107.11 106.212 107.469 106.931 108.188C107.678 108.879 108.051 109.902 108.051 111.257V115.197C108.051 116.994 107.913 118.653 107.636 120.173C107.387 121.666 107.111 122.814 106.807 123.615H98.8029C98.9135 123.311 99.024 122.98 99.1346 122.62C99.2452 122.261 99.342 121.86 99.4249 121.417H92.209V124.818H106.558C107.802 124.818 108.687 125.15 109.212 125.813C109.737 126.449 110 127.182 110 128.011C110 128.841 109.724 129.587 109.171 130.251C108.645 130.914 107.774 131.246 106.558 131.246H74.6252C73.4087 131.246 72.524 130.914 71.9711 130.251C71.4458 129.587 71.1831 128.841 71.1831 128.011C71.1831 127.182 71.4458 126.449 71.9711 125.813C72.4964 125.15 73.3811 124.818 74.6252 124.818H83.8318V121.417H75.7035C74.487 121.417 73.6161 121.141 73.0908 120.588C72.5931 120.007 72.3443 119.289 72.3443 118.432C72.3443 117.657 72.5931 116.98 73.0908 116.399C73.6161 115.791 74.487 115.487 75.7035 115.487H99.9226V113.953C99.9226 113.621 99.8396 113.4 99.6738 113.289C99.5355 113.179 99.3143 113.123 99.0102 113.123H76.2011ZM76.2841 139.706C75.1505 139.706 74.2796 139.43 73.6714 138.877C73.0908 138.296 72.8005 137.536 72.8005 136.596C72.8005 135.656 73.0908 134.923 73.6714 134.398C74.2796 133.845 75.1505 133.568 76.2841 133.568H102.328C103.572 133.568 104.581 133.665 105.355 133.859C106.129 134.025 106.724 134.343 107.139 134.813C107.581 135.255 107.871 135.877 108.009 136.679C108.175 137.453 108.258 138.434 108.258 139.623V145.471H99.9641V140.619C99.9641 140.01 99.6599 139.706 99.0517 139.706H76.2841Z" fill="#00000A"/>
<path d="M38.4209 145.471C37.2597 145.471 36.2921 145.36 35.518 145.139C34.7715 144.918 34.1771 144.572 33.7347 144.102C33.2923 143.632 32.9744 143.01 32.7809 142.236C32.615 141.462 32.532 140.522 32.532 139.416V133.029C32.532 131.619 32.9329 130.61 33.7347 130.002C34.5641 129.366 35.5594 129.048 36.7206 129.048C37.7712 129.048 38.6559 129.297 39.3748 129.795C40.1213 130.292 40.5774 131.094 40.7433 132.2H59.3638C59.5297 131.094 59.9997 130.292 60.7739 129.795C61.548 129.297 62.4604 129.048 63.511 129.048C64.6721 129.048 65.6398 129.366 66.4139 130.002C67.2157 130.61 67.6166 131.619 67.6166 133.029V145.471H38.4209ZM46.5493 114.492V114.989C46.5493 115.653 46.5078 116.289 46.4249 116.897C49.6873 116.952 52.0788 117.837 53.5994 119.551C55.1476 121.265 55.8941 123.961 55.8388 127.638H48.0837C48.2219 126.035 47.9178 124.804 47.1713 123.947C46.4525 123.062 45.4572 122.689 44.1854 122.827H44.0195C42.7754 124.459 41.2271 125.703 39.3748 126.56C37.55 127.389 35.67 127.832 33.7347 127.887C32.7117 127.915 31.8409 127.638 31.122 127.057C30.4032 126.477 30.03 125.717 30.0023 124.777C29.9747 123.809 30.1958 123.035 30.6658 122.454C31.1358 121.874 31.7856 121.514 32.615 121.376C34.5227 121.099 36.0018 120.394 37.0524 119.261C38.103 118.127 38.6283 116.704 38.6283 114.989V114.492H33.32C32.8223 114.492 32.38 114.395 31.9929 114.201C31.6335 113.98 31.3294 113.718 31.0806 113.413C30.8317 113.082 30.6382 112.722 30.5 112.335C30.3617 111.948 30.2926 111.561 30.2926 111.174C30.2926 110.815 30.3479 110.441 30.4585 110.054C30.5691 109.64 30.7488 109.266 30.9976 108.935C31.2464 108.603 31.5644 108.34 31.9514 108.147C32.3385 107.925 32.7947 107.815 33.32 107.815H52.5211C53.0464 107.815 53.5026 107.925 53.8897 108.147C54.2767 108.34 54.5947 108.603 54.8435 108.935C55.0923 109.266 55.272 109.64 55.3826 110.054C55.4932 110.441 55.5485 110.815 55.5485 111.174C55.5485 111.561 55.4794 111.948 55.3411 112.335C55.2029 112.722 55.0094 113.082 54.7605 113.413C54.5117 113.718 54.1938 113.98 53.8067 114.201C53.4473 114.395 53.0188 114.492 52.5211 114.492H46.5493ZM59.0321 110.635C59.0321 109.28 59.4468 108.257 60.2762 107.566C61.1333 106.875 62.1148 106.529 63.2207 106.529C63.746 106.529 64.2574 106.626 64.7551 106.82C65.2804 106.985 65.7366 107.248 66.1236 107.608C66.5107 107.939 66.8148 108.368 67.036 108.893C67.2848 109.391 67.4092 109.971 67.4092 110.635V127.555H59.0321V110.635ZM59.3224 139.955V137.508H40.8263V138.918C40.8263 139.388 40.8954 139.679 41.0336 139.789C41.1719 139.9 41.476 139.955 41.946 139.955H59.3224Z" fill="#00000A"/>
</svg>
