<svg xmlns="http://www.w3.org/2000/svg" width="150" height="150" viewBox="0 0 150 150" fill="none">
  <path d="M41.7014 61.1555C41.1045 58.4656 41.1961 55.6685 41.9679 53.0235C42.7396 50.3784 44.1664 47.9712 46.116 46.0249C48.0657 44.0786 50.475 42.6562 53.1206 41.8897C55.7661 41.1232 58.5623 41.0374 61.2499 41.6402C62.7292 39.3257 64.767 37.4211 67.1756 36.1018C69.5842 34.7824 72.2861 34.0909 75.0321 34.0909C77.7781 34.0909 80.4799 34.7824 82.8885 36.1018C85.2971 37.4211 87.3349 39.3257 88.8142 41.6402C91.5059 41.0348 94.3069 41.1202 96.9567 41.8886C99.6065 42.6569 102.019 44.0832 103.97 46.0348C105.921 47.9864 107.346 50.3999 108.114 53.0507C108.882 55.7016 108.968 58.5037 108.363 61.1964C110.676 62.6763 112.58 64.7149 113.899 67.1245C115.218 69.534 115.909 72.2369 115.909 74.984C115.909 77.7311 115.218 80.4339 113.899 82.8435C112.58 85.253 110.676 87.2917 108.363 88.7715C108.965 91.4602 108.879 94.2575 108.113 96.9041C107.347 99.5507 105.925 101.961 103.98 103.911C102.034 105.862 99.6279 107.289 96.9839 108.061C94.3399 108.833 91.5439 108.925 88.8551 108.328C87.3777 110.651 85.3383 112.564 82.9256 113.889C80.5129 115.214 77.805 115.909 75.0525 115.909C72.3001 115.909 69.5921 115.214 67.1794 113.889C64.7667 112.564 62.7273 110.651 61.2499 108.328C58.5623 108.931 55.7661 108.845 53.1206 108.078C50.475 107.312 48.0657 105.889 46.116 103.943C44.1664 101.997 42.7396 99.5895 41.9679 96.9445C41.1961 94.2995 41.1045 91.5023 41.7014 88.8124C39.3701 87.3365 37.4499 85.2947 36.1192 82.8769C34.7886 80.4591 34.0908 77.744 34.0908 74.984C34.0908 72.224 34.7886 69.5088 36.1192 67.091C37.4499 64.6733 39.3701 62.6314 41.7014 61.1555Z" fill="#FF4A4A" stroke="#FF4A4A" stroke-width="6" stroke-linecap="round" stroke-linejoin="round"/>
  <path d="M57.9541 75L71.5905 88.6364L95.4541 64.7727" stroke="white" stroke-width="6.81818" stroke-linecap="round"/>
</svg>