<svg width="72" height="72" viewBox="0 0 72 72" fill="none" xmlns="http://www.w3.org/2000/svg">
<g id="&#236;&#152;&#164;&#237;&#148;&#188;&#236;&#138;&#164;&#237;&#133;&#148;">
<path id="Vector 697" d="M32 60V14C32 12.8954 32.8954 12 34 12H54C55.1046 12 56 12.8954 56 14V60" stroke="#1B1D1F" stroke-width="2" stroke-linecap="round" stroke-linejoin="round"/>
<path id="Vector 707" d="M14 60V26C14 24.8954 14.8954 24 16 24H32V60" stroke="#1B1D1F" stroke-width="2" stroke-linecap="round" stroke-linejoin="round"/>
<path id="Vector 704" d="M43 25H51" stroke="#1B1D1F" stroke-width="2" stroke-linecap="round" stroke-linejoin="round"/>
<path id="Vector 705" d="M43 37H51" stroke="#1B1D1F" stroke-width="2" stroke-linecap="round" stroke-linejoin="round"/>
<path id="Vector 706" d="M43 49H51" stroke="#1B1D1F" stroke-width="2" stroke-linecap="round" stroke-linejoin="round"/>
<path id="Vector 708" d="M19 29L19 49" stroke="#1B1D1F" stroke-width="2" stroke-linecap="round" stroke-linejoin="round"/>
<path id="Vector 709" d="M23 29L23 49" stroke="#1B1D1F" stroke-width="2" stroke-linecap="round" stroke-linejoin="round"/>
<path id="Vector 710" d="M27 29L27 49" stroke="#1B1D1F" stroke-width="2" stroke-linecap="round" stroke-linejoin="round"/>
<rect id="Rectangle 24062" x="44" y="43" width="6" height="6" fill="#FFEFEF" stroke="#1B1D1F" stroke-width="2" stroke-linejoin="round"/>
<rect id="Rectangle 24063" x="44" y="31" width="6" height="6" fill="#FFEFEF" stroke="#1B1D1F" stroke-width="2" stroke-linejoin="round"/>
<rect id="Rectangle 24064" x="44" y="19" width="6" height="6" fill="#FFEFEF" stroke="#1B1D1F" stroke-width="2" stroke-linejoin="round"/>
</g>
</svg>
