<svg xmlns="http://www.w3.org/2000/svg" width="33" height="32" viewBox="0 0 33 32" fill="none">
<path d="M22.333 15.0001L22.333 11L24.333 11C24.8853 11 25.333 11.4477 25.333 12L25.333 15.0001L22.333 15.0001ZM22.333 17.0001L25.333 17.0001L25.333 20C25.333 20.5523 24.8853 21 24.333 21L22.333 21L22.333 17.0001ZM22.333 23L24.333 23C25.9899 23 27.333 21.6569 27.333 20L27.333 16.0001L27.333 12C27.333 10.3431 25.9899 9 24.333 9L22.333 9L22.333 7.00011L26.333 7.00011C27.9899 7.00011 29.333 8.34326 29.333 10.0001L29.333 22.0001C29.333 23.657 27.9899 25.0001 26.333 25.0001L22.333 25.0001L22.333 23ZM20.333 22L20.333 25.0001L18.333 25L18.333 7.00003L20.333 7.00008L20.333 10L20.333 16.0001L20.333 22ZM16.333 7.00001L16.333 25L6.33303 25.0001C4.67617 25.0001 3.33301 23.6569 3.33301 22.0001L3.33301 10.0001C3.33301 8.34323 4.67614 7.00009 6.33299 7.00008L16.333 7.00001Z" stroke="#4B5259" stroke-width="2"/>
</svg>