<svg xmlns="http://www.w3.org/2000/svg" width="32" height="32" viewBox="0 0 32 32" fill="none">
  <path d="M16 25L16 28" stroke="#4B5259" stroke-width="2"/>
  <path d="M11 29H21" stroke="#4B5259" stroke-width="2" stroke-linecap="round"/>
  <path d="M10.2636 13.8129L10.7636 5.81286C10.8625 4.23176 12.1736 3 13.7578 3H18.2422C19.8264 3 21.1375 4.23176 21.2364 5.81287L21.7364 13.8129C21.8443 15.54 20.4727 17 18.7422 17H13.2578C11.5273 17 10.1557 15.54 10.2636 13.8129Z" stroke="#4B5259" stroke-width="2"/>
  <path d="M21 24H11C9.34315 24 8 22.6569 8 21V20H24V21C24 22.6569 22.6569 24 21 24Z" stroke="#4B5259" stroke-width="2"/>
  <path d="M26 18C26.5523 18 27 17.5523 27 17C27 16.4477 26.5523 16 26 16V18ZM25 21V19H23V21H25ZM25 19C25 18.4477 25.4477 18 26 18V16C24.3431 16 23 17.3431 23 19H25Z" fill="#4B5259"/>
  <path d="M6 18C5.44772 18 5 17.5523 5 17C5 16.4477 5.44772 16 6 16V18ZM7 21V19H9V21H7ZM7 19C7 18.4477 6.55228 18 6 18V16C7.65685 16 9 17.3431 9 19H7Z" fill="#4B5259"/>
</svg>