<svg xmlns="http://www.w3.org/2000/svg" width="33" height="32" viewBox="0 0 33 32" fill="none">
<path d="M5.66602 12H27.666V24C27.666 25.6569 26.3229 27 24.666 27H8.66602C7.00916 27 5.66602 25.6569 5.66602 24V12ZM27.666 10H5.66602V8C5.66602 6.34315 7.00916 5 8.66602 5H24.666C26.3229 5 27.666 6.34315 27.666 8V10Z" stroke="#4B5259" stroke-width="2" stroke-linejoin="round"/>
<circle cx="16.666" cy="19" r="5" stroke="#4B5259" stroke-width="2"/>
<rect x="8.66602" y="7" width="2" height="2" rx="1" fill="#4B5259"/>
<rect x="11.666" y="7" width="2" height="2" rx="1" fill="#4B5259"/>
<rect x="18.666" y="7" width="6" height="2" rx="1" fill="#4B5259"/>
<path d="M17.666 17.5C17.666 18.0523 17.2183 18.5 16.666 18.5C16.1137 18.5 15.666 18.0523 15.666 17.5C15.666 16.9477 16.1137 16.5 16.666 16.5C17.2183 16.5 17.666 16.9477 17.666 17.5Z" fill="#4B5259"/>
<path d="M16.166 20C16.166 20.5523 15.7183 21 15.166 21C14.6137 21 14.166 20.5523 14.166 20C14.166 19.4477 14.6137 19 15.166 19C15.7183 19 16.166 19.4477 16.166 20Z" fill="#4B5259"/>
<path d="M19.166 20C19.166 20.5523 18.7183 21 18.166 21C17.6137 21 17.166 20.5523 17.166 20C17.166 19.4477 17.6137 19 18.166 19C18.7183 19 19.166 19.4477 19.166 20Z" fill="#4B5259"/>
</svg>