<svg xmlns="http://www.w3.org/2000/svg" width="32" height="32" viewBox="0 0 32 32" fill="none">
<path d="M11 19.0001C16 17.5 17 21 21 19.0001" stroke="#4B5259" stroke-width="2"/>
<path d="M5 12H27V24C27 25.6569 25.6569 27 24 27H8C6.34315 27 5 25.6569 5 24V12ZM27 10H5V8C5 6.34315 6.34315 5 8 5H24C25.6569 5 27 6.34315 27 8V10Z" stroke="#4B5259" stroke-width="2" stroke-linejoin="round"/>
<circle cx="16" cy="19" r="5" stroke="#4B5259" stroke-width="2"/>
<rect x="8" y="7" width="2" height="2" rx="1" fill="#4B5259"/>
<rect x="11" y="7" width="2" height="2" rx="1" fill="#4B5259"/>
<rect x="18" y="7" width="6" height="2" rx="1" fill="#4B5259"/>
</svg>